<?xml version="1.0" encoding="utf-8"?>
<!-- Generator: Adobe Illustrator 26.0.3, SVG Export Plug-In . SVG Version: 6.00 Build 0)  -->
<svg version="1.1" id="Layer_1" xmlns="http://www.w3.org/2000/svg" xmlns:xlink="http://www.w3.org/1999/xlink" x="0px" y="0px"
	 viewBox="0 0 300 90" style="enable-background:new 0 0 300 90;" xml:space="preserve">
<style type="text/css">
	.st0{fill-rule:evenodd;clip-rule:evenodd;fill:#1D1D1B;}
	.st1{fill-rule:evenodd;clip-rule:evenodd;fill:#FFEC00;}
	.st2{fill:#1D1D1B;}
	.st3{fill:#FFFFFF;}
	.st4{fill-rule:evenodd;clip-rule:evenodd;fill:#009540;}
	.st5{fill-rule:evenodd;clip-rule:evenodd;fill:#FFFFFF;}
	.st6{fill-rule:evenodd;clip-rule:evenodd;fill:#E20613;}
</style>
<path class="st0" d="M150,8.2c-20.6,0-33,7.3-33,7.3l0.2,16.6c0,7.6,2.5,40.1,32.7,57.8c30.2-17.7,32.7-50.1,32.7-57.8l0.2-16.6
	C182.9,15.5,170.6,8.2,150,8.2z"/>
<path class="st1" d="M181.7,16.7c0,0-10.7-6.8-31.7-6.8s-31.7,6.8-31.7,6.8l0.3,15.4c0,6,1.2,38.4,31.4,56
	c30.2-17.6,31.4-49.9,31.4-56L181.7,16.7z"/>
<path class="st2" d="M149.2,12.4c0,0.2-0.1,0.4-0.1,0.6c-0.1,0.2-0.3,0.3-0.3,0.5c0.1,0.2,0.2,0.3,0.4,0.4c0.2,0.1,0.3,0.2,0.5,0.2
	c0.2,0,0.4,0.2,0.5,0c0.1-0.2,0-0.4-0.2-0.6c-0.2-0.3-0.3-0.4-0.6-0.9C149.4,12.5,149.3,12.4,149.2,12.4z"/>
<path class="st2" d="M147.7,49.1c0-0.1,0.5,0.2,0.8,0.4c0.4,0.3,0.9,0.6,1.2,0.9c0.4,0.3,0.5,0.4,0.9,0.8s0.7,0.7,0.8,0.7
	s-0.3-0.8-0.7-1.2c-0.4-0.3-0.8-0.6-1.1-0.8s-0.5-0.3-1.1-0.8c-0.4-0.3-0.9-0.6-1.3-1l-0.6-0.5l-1-0.9l-1.1-1l-0.9-1
	c0,0-0.7-0.8-0.8-1s-0.4-0.7-0.7-1.1c-0.2-0.3-0.5-0.7-0.7-1c-0.2-0.3-0.8-0.2-1.4-0.6c-0.4-0.2-0.8-0.5-1-0.9l-0.1-0.1l-0.1-0.1
	l-0.4-0.3l-0.2-0.2c-0.1-0.1-0.3-0.2-0.4-0.2c-0.2-0.1-0.7-0.4-0.7-0.4l-0.9-0.6l-0.5-0.4c-0.1-0.1-0.2-0.1-0.3-0.2
	c-0.1,0-0.1-0.1-0.2-0.1H135c-0.1,0-0.3,0-0.4,0.2c-0.2,0.2-0.1,0.1,0.2,1.3c0.1,0.5,0.1,2.1,0.2,2.6c0.2,0.5,0.4,1.1,0.6,1.5
	c0,0.1,0.1,0.3,0.1,0.5c0,0.2,0,0.3,0,0.5c0.1,0.8,1.4,0.3,1.6,1.4c0.1,0.8,0.1,1.5-0.2,2.3c0,0-0.3,0.6-0.6,0.7s-1-0.7-1.4-1.4
	c-0.3-0.6-0.6-1.2-0.9-1.8c-0.1-0.2-0.2-0.4-0.3-0.5c-0.2-0.3-0.3-0.2-0.5-0.7s0-0.7-0.1-1c0-0.2-0.1-0.2-0.2-0.6s-0.2-1.4-0.2-1.4
	l-0.1-1c0,0,0-0.4-0.1-0.7c-0.1-0.6-0.2-1.2-0.3-1.9v-0.4v-0.4c0-0.1,0-0.3,0-0.4c0-0.1,0.1-0.2,0.1-0.3l0.2-0.4
	c0.1-0.2,0.3-0.4,0.4-0.5c0.2-0.1,0.4-0.3,0.5-0.4c0.2-0.1,0.4-0.2,0.6-0.2c0.2,0,0.5,0,0.7,0.1c0.7,0.1,1.4,0.3,2.1,0.5
	c0.3,0.1,0.6,0.2,0.9,0.3c0.7,0.4,0.9,0.2,0.4-0.2c-0.3-0.2-0.5-0.4-0.8-0.7c-0.2-0.2-0.4-0.4-0.6-0.6s-0.7-1-0.7-1l-0.3-0.5
	c0,0-0.2-0.2-0.2-0.2l-0.1-0.1c-0.1,0-0.3,0-0.4,0c-0.2,0-0.3,0.3-0.3,0.3c-0.3,0.5-0.6,1-1,1.5c-0.6,0.6-1.2,1.3-1.7,2
	c-0.4,0.7-0.3,1.4-0.5,1.7c-0.1,0.1-0.2,0.3-0.3,0.4c-0.2,0.5,0.6,0.8,0.4,1.4c-0.3,0.9-2.4,1.8-2.7,1.7c-0.3-0.2,0-1.4,0-1.8
	c0.1-0.3,0.2-0.7,0.4-1c0.1-0.1,0.1-0.2,0.1-0.3c0-0.1,0-0.4,0.1-0.5c0-0.1,0-0.3,0.1-0.4c0.1-0.2,0.1-0.3,0.2-0.5
	c0.2-0.4,0.9-1.4,1.4-2.3c0.3-0.6,0.5-1,0.8-1.6c0.3-0.6,0.8-1.4,0.8-1.4s0.2-0.4,0.3-0.6s0.3-0.5,0.5-0.8c0.1-0.3,0.3-0.6,0.5-0.8
	c0.2-0.2,0.4-0.3,0.7-0.4c0.4-0.1,0.8-0.1,1.2,0.1c0.4,0.1,0.8,0.3,1.1,0.6c0.2,0.2,0.4,0.3,0.5,0.5l0.1,0.2l0.1,0.1l0.3,0.2
	l0.6,0.4l1.6,1.1c0.1,0.1,0.4,0.3,0.4,0.3s0.5-0.4,1.3-1c0.5-0.3,1-0.6,1.6-0.8c0.2-0.1,0.5-0.3,0.7-0.5c0.4-0.4,0.4-0.5,0.8-1
	c0.3-0.3,0.5-0.6,0.9-0.8l0.8-0.9c0.4-0.4,0.8-0.9,1.1-1.5l0.4-0.8c0,0,0.6-1.2,0.8-1.8c0.1-0.2,0.2-0.4,0.2-0.7
	c0-0.1,0-0.3-0.1-0.4c-0.1-0.2-0.3-0.1-0.6-0.1c-0.5,0.1-0.9,0-1.4-0.1c-0.5-0.1-0.8-0.2-1.2-0.3c-0.4-0.1-0.9-0.1-1.3-0.1
	c-0.1,0-0.2,0-0.3,0.1c-0.2,0.1-0.4,0.1-0.6,0.2c-0.2,0.1-0.4,0.2-0.7,0.2c-0.2,0-0.3,0-0.5-0.1c-0.1,0-0.2-0.1-0.3-0.2
	c-0.1,0-0.1-0.1-0.1-0.1c0,0,0,0,0-0.1c0,0,0.1-0.1,0.1-0.1l0.2-0.1l0.4-0.1l0.5-0.1c0.1,0,0.2-0.1,0.3-0.1c0,0,0.1-0.1,0-0.2
	s-0.2-0.1-0.2-0.1s-0.3,0.1-0.3,0.1l-0.4,0.1l-0.6,0.1c-0.2,0-0.4,0.1-0.6,0.1h-0.1c0,0-0.1-0.1-0.1-0.2c0-0.1,0-0.1,0-0.2
	c-0.1-0.3-0.1-0.6,0-0.8c0-0.1,0.1-0.2,0.1-0.3c0-0.1,0.1-0.2,0.1-0.3l0.2-0.3l0.4-0.5c0.1-0.1,0.2-0.2,0.4-0.3
	c0.2-0.1,0.4-0.2,0.7-0.2c0.3,0,0.5-0.1,0.8-0.1c0.2-0.1,0.5-0.1,0.7-0.3c0,0,1-0.4,1.6-0.7s0.9-0.6,1.6-0.9
	c0.2-0.1,0.5-0.2,0.7-0.2c0,0,0.1-0.1,0.1-0.1c0-0.1-0.1-0.1-0.2-0.1s-0.3,0.1-0.4,0c0-0.1,0.2-0.1,0.2-0.1s0.1-0.1,0.1-0.1
	s-0.2,0-0.2,0c-0.2,0-0.5-0.1-0.7-0.2c-0.3-0.1-0.5-0.2-0.8-0.2c-0.3,0-0.5,0-0.7,0.1c-0.2,0-0.2-0.1-0.1-0.2
	c0.5-0.2,0.5-0.3,0.9-0.3c0.2,0,0.3,0,0.5,0c0.2,0,0.4,0,0.5-0.1c0.1-0.1-0.3-0.1-0.5-0.2c-0.2-0.1-0.5-0.1-0.4-0.2
	c0-0.1,0.1-0.1,0.2-0.1s0.2,0,0.3,0s0.2-0.1,0.6-0.1c0.3,0,0.5,0,0.8,0.1l0.7,0.3c0.2,0.1,0.3,0.1,0.5,0.2c0.2,0,0.4,0,0.6-0.1
	c0.3-0.2,0.1-0.3,0-0.4c-0.1-0.2-0.1-0.5,0-0.7c0.1-0.3,0.2-0.7,0.3-0.8s0.3,0.3,0.4,0.4c0.7,0.4,1.3,1,1.7,1.6c0,0.1,0.3,0,1,0.1
	c0.6,0.2,1.1,0.5,1.5,1c0.1,0.1,0.2,0.2,0.4,0.2h0.3h1.2c0.3-0.1,0.6-0.1,0.9,0c0.2,0.1,1,0.6,0.6,0.8c-0.4,0.2-0.5-0.2-0.7-0.2
	c-0.2,0-0.4,0-0.6,0.1c-0.5,0.1-1.5,0.4-1.1,0.5h0.1h0.2c0.2,0.1,0.5,0.1,0.7,0.2c0.3,0.2,0.7,0.3,1,0.6c0.2,0.1,0.4,0.2,0.6,0.3
	c0.2,0.1,0.4,0,0.6,0c0.3,0,0.5,0.1,0.7,0.2c0.3,0.2,0.6,0.4,0.9,0.7c0.2,0.1,0.3,0.1,0.5,0.3s0.1,0.1,0.1,0.1c0,0.1-0.3,0.1-0.4,0
	c-0.1,0-0.3-0.1-0.4-0.2c-0.2-0.1-0.4-0.2-0.6-0.3c-0.2,0-0.3,0-0.5,0c-0.2,0-0.3,0-0.5,0c-0.3,0-0.6,0-0.8-0.1
	c-0.4-0.1-0.5-0.2-0.9-0.3c-0.4-0.1-1.1-0.4-1-0.1c0,0.2,0.4,0.3,0.4,0.3s0.2,0.1,0.5,0.2c0.1,0.1,0.3,0.2,0.4,0.3l0.2,0.1
	c0,0,0.2,0.2,0.4,0.5c0.2,0.2,0.4,0.3,0.6,0.3c0.3,0,0.5,0,0.8,0.1c0.4,0.1,0.7,0.2,1.1,0.4c0.2,0.2,0.4,0.3,0.6,0.6
	c0.2,0.3,0.1,0.4,0.1,0.5c0,0,0,0,0,0c-0.1-0.1-0.2-0.2-0.3-0.4l-0.2-0.2c-0.2-0.1-0.3-0.2-0.5-0.2c-0.3-0.1-0.3,0-0.3,0
	c-0.3,0.1-0.7,0.1-1.1,0.1c-0.3,0-0.5-0.1-0.8-0.2l-0.3-0.2c0,0-0.5-0.4-0.5-0.2s0.2,0.3,0.2,0.3l0.2,0.2c0.2,0.2,0.3,0.3,0.5,0.5
	c0.2,0.2,0.3,0.2,0.3,0.2h0.2h0.1l0.4,0.2c0.2,0.1,0.5,0.3,0.7,0.4c0,0,0.1,0,0.1,0c0,0,0.1,0.1,0.2,0.1h0.3c0.2,0,0.1,0.1,0.1,0.1
	v0l-0.2,0.1c-0.1,0-0.2,0.1-0.3,0.1c-0.1,0-0.2,0-0.3-0.1l-0.4-0.2c0,0-0.4-0.1-0.5-0.1l-0.6-0.1c-0.1,0-0.2-0.1-0.3-0.1
	c0,0-0.2,0-0.4-0.2c-0.2-0.1-0.4-0.2-0.6-0.3c-0.2-0.1-0.5-0.1-0.7,0c-0.4,0.3,0.6,0.3,1,0.5c0.7,0.4,1.1,0.6,1.3,1
	c0.1,0.2,0.2,0.4,0.3,0.5c0.3,0.1,0.5,0.3,0.7,0.5c0.1,0.1,0.1,0.3,0.3,0.4c0.3,0.3,0.8,0.3,0.9,0.6s-0.4,0.1-0.7,0.1
	c-0.5,0-0.6-0.5-1.1-0.7c-0.3-0.1-0.4-0.1-0.7-0.2c-0.5-0.2-0.7-0.4-1.2-0.5c-0.3-0.1-0.8-0.5-0.8-0.2c0,0.1,0,0.1,0.1,0.2
	c0,0.1,0.1,0.1,0.1,0.2c0.1,0.1,0.2,0.2,0.2,0.3c0.3,0.2,0.5,0.4,0.8,0.5c0.3,0.2,0.6,0.4,0.8,0.7c0.1,0.1,0.1,0.2,0.2,0.3
	c0,0.1,0.1,0.3,0.1,0.4c0.1,0.1,0.2,0.3,0.3,0.4c0.3,0.3,0.7,0.2,1.1,0.4c0.1,0,0.1,0.1,0.2,0.2s0,0.2,0,0.2
	c-0.2,0.1-0.5,0.1-0.8,0.1c-0.3,0-0.7-0.2-0.9-0.3c-0.3,0-0.5-0.1-0.7-0.2c0,0-0.1-0.1-0.2-0.2c-0.1-0.1-0.3-0.1-0.4-0.1
	c-0.2,0-0.3-0.1-0.4-0.1l-0.6-0.2c-0.2-0.1-0.4-0.1-0.5,0c-0.4,0.2,0.6,0.4,0.8,0.7c0.3,0.3,0.2,0.3,0.3,0.4
	c0.1,0.1,0.2,0.2,0.3,0.3c0.1,0.1,0.2,0.1,0.2,0.1c0,0,0.2,0.1,0.6,0.3c0.3,0.2,0.5,0.4,0.7,0.7l0.2,0.4l0.1,0.2v0.1l0,0.1
	c0.1,0.1,0.2,0.2,0.3,0.3c0.1,0.1,0.1,0.1,0.1,0.1c0,0-0.1,0.1-0.1,0.1c-0.1,0-0.1,0-0.2,0s-0.2-0.1-0.3-0.2s-0.2-0.3-0.4-0.4
	c-0.2-0.1-0.3-0.1-0.5-0.2c-0.1,0-0.3-0.2-0.4-0.2l-0.3-0.1c-0.2-0.1-0.4-0.2-0.7-0.3c-0.2-0.1-0.1,0.1-0.1,0.1
	c0.1,0.2,0.3,0.3,0.4,0.5c0.3,0.2,0.6,0.3,0.5,0.5s-0.2,0.1-0.3,0c-0.2-0.1-0.3-0.1-0.4-0.3c-0.2-0.1-0.4-0.2-0.5-0.2
	c-0.4-0.1-0.3,0.1-0.2,0.2c0.1,0.1,0.1,0.1,0.2,0.2l0.3,0.1l0.1,0l0.5,0.1c0.2,0,0.4,0.1,0.6,0.3c0.2,0.1,0.3,0.3,0.5,0.4
	c0.2,0.2,0.5,0.3,0.8,0.3c0.2,0,0.2,0.1,0.2,0.1c0,0,0,0.1,0,0.1c0,0,0,0.1-0.1,0.1c0,0-0.1,0-0.1,0c-0.1,0-0.1,0-0.2,0
	c-0.3,0-0.5,0-0.8-0.1c-0.2-0.1-0.5-0.2-0.7-0.3c-0.2-0.1-0.4-0.2-0.6-0.3c-0.2,0-0.4,0-0.6,0c0,0-0.2,0-0.4,0.1
	c-0.2,0.1,0.1,0.1,0.1,0.1h0.1h0.4c0.2,0,0.5,0.1,0.7,0.1c0.3,0.1,0.5,0.3,0.7,0.6c0.1,0.1,0.3,0.2,0.4,0.3l0.2,0.1l0.1,0.1v0.1v0.1
	c0,0,0,0.1-0.1,0.1h-0.1c0,0-0.3-0.1-0.4-0.2c-0.2-0.1-0.3-0.1-0.5-0.2c-0.1,0-0.3,0-0.4,0c0,0-0.4,0.1-0.7,0.1c-0.3,0-0.6,0-0.9,0
	c-0.5-0.1-1.1-0.4-1.2-0.3c-0.1,0.1,0.3,0.3,0.6,0.4c0.3,0.1,0.6,0.3,0.9,0.4c0.2,0,0.4,0.1,0.7,0.2c0.5,0.2,0.7,0.6,1.1,1
	c0.2,0.2,0.5,0.3,0.8,0.4c0.3,0,0.3,0,0.7-0.1s0.7-0.5,0.8-0.3s0,0,0,0.1c0,0,0,0.1,0,0.1c0,0.1-0.1,0.1-0.1,0.2
	c-0.2,0.1-0.3,0.2-0.5,0.3c-0.3,0.1-0.7,0.2-1,0.2c-0.4-0.1-0.8-0.2-1.2-0.4l-0.5-0.2l-0.4-0.2c-0.4-0.2-0.7-0.1-1.1-0.2
	c-0.3-0.1-0.4-0.1-0.7-0.2s-0.1,0-0.1,0.1c0.1,0.1,0.3,0.2,0.4,0.3c0.2,0.1,0.4,0.1,0.7,0.2c0.2,0.1,0.5,0.2,0.7,0.4
	c0.2,0.1,0.3,0.2,0.4,0.4l0.5,0.4c0,0,0.1,0.1,0.1,0.2c0,0.1,0.1,0.2,0.1,0.3c0,0.2-0.2,0-0.2,0l-0.1-0.1l-0.1-0.1l-0.2-0.2
	c-0.2-0.1-0.3-0.2-0.5-0.3c-0.2-0.1-0.5-0.2-0.7-0.2c0,0-0.3,0-0.3,0.1s0.1,0.1,0.4,0.2c0.2,0,0.3,0.1,0.4,0.2
	c0.2,0.1,0.3,0.3,0.5,0.4c0.1,0.1,0.2,0.3,0.3,0.5c0.1,0.2,0.2,0.3,0.3,0.4c0.3,0.2,0.4,0.2,0.4,0.3c0,0.1-0.1,0.1-0.1,0.2h-0.1
	c0,0-0.1,0-0.2-0.1s-0.3-0.2-0.3-0.2l-0.5-0.4l-0.4-0.3c0,0-0.2-0.2-0.4-0.2c-0.2-0.1-0.3-0.2-0.5-0.2c-0.1,0-0.2,0-0.4,0
	c-0.2,0-0.3-0.1-0.5-0.1c-0.2-0.1-0.4-0.3-0.6-0.4c-0.1,0-0.2-0.1-0.3-0.1c-0.1,0.2-0.2,0.5-0.2,0.8c-0.1,1,0.2,2.1,0.7,3
	c0.7,1.3,1.6,2.5,2.6,3.5c0.2,0.1,0.5,0.3,0.7,0.4c0.8,0.6,1.6,1.2,2.4,1.9c0.6,0.6,1.2,1.3,1.7,2c0.3,0.4,0.6,0.9,0.8,1.3
	c0.2,0.6,0.4,1.1,0.6,1.7c0,0.1,0,0.1,0,0.2c0,0,0.1,0.1,0.1,0.1h0.3c0.2,0,0.5,0,0.7-0.1c0.4-0.1,0.8-0.3,1.2-0.5
	c0.3-0.2,0.6-0.4,0.9-0.6c0,0,0.1-0.1,0.6-0.6c0.4-0.5,0.7-1,0.9-1.6c0.2-0.6,0.3-1.2,0.3-1.8c0-0.7,0-1.3-0.1-2
	c0,0-0.2-1.4-0.3-1.9s-0.4-1.3-0.4-1.3c-0.1-0.4-0.2-0.7-0.2-1.1c-0.1-0.4-0.1-1.2-0.1-1.2c0-0.4,0.1-0.8,0.1-1.2
	c0.1-0.6,0.3-1.1,0.6-1.6c0.2-0.3,0.4-0.6,0.7-0.9c0.4-0.4,0.8-0.8,1.2-1.1c0.4-0.3,1-0.8,1.2-0.7s-0.2,0.4-0.3,0.5
	c-0.6,0.5-1.1,1.1-1.5,1.8c-0.3,0.5-0.6,1.1-0.7,1.8c-0.1,0.4-0.1,0.8-0.1,1.2c0,0.2,0.1,0.1,0.1,0.1c0.6-0.5,1.1-1,1.7-1.5
	c0.6-0.7,1.2-2,1.4-2s0.2,0.3,0.2,0.5c-0.1,0.4-0.2,0.8-0.4,1.2c-0.2,0.4-0.5,0.8-0.8,1.2c-0.3,0.4-0.6,0.8-0.8,1.3
	c-0.2,0.5-0.3,1.1-0.2,1.6c0,0,0,0.4,0.2,0.4s1-0.9,1.5-1.6c0.3-0.5,0.5-1.2,0.7-1.5s0.4,0.5,0.3,0.9c-0.2,0.7-0.5,1.3-0.9,1.8
	c-0.3,0.4-0.5,0.9-0.5,1.4c0,0-0.1,0.3-0.1,1c0,0.6,0,1.2,0.2,1.8c0.1,0.5,0.2,1,0.2,1.5c0.1,1.2-0.1,2.3-0.6,3.4
	c-0.2,0.4-0.5,0.8-0.8,1.1c-0.2,0.2-0.5,0.5-0.8,0.7c-0.4,0.2-0.8,0.4-1.2,0.6l-0.6,0.2c-0.1,0-0.1,0-0.1,0.1l0.1,0.2l0.2,0.4
	c0.1,0.3,0.2,0.7,0.2,1c0,0.3,0,0.6-0.1,0.9c-0.1,0.3-0.2,0.2-0.2,0.8c0,0.6,0.2,0.8,0.2,1.4c0,0.3-0.3-0.3-0.5-0.6
	c-0.2-0.5-0.3-1.1-0.2-1.7c0-0.2,0-0.5-0.1-0.7c-0.1-0.3-0.2-0.6-0.4-0.8c-0.2-0.2-0.3-0.3-0.4-0.3c-0.1,0-0.1,0.1-0.1,0.2
	c0,0.1,0.1,0.2,0.1,0.3l0.2,0.4c0.1,0.3,0.1,0.6,0.1,0.9c0,0.4,0,0.9-0.1,1.3c-0.1,0.4-0.3,0.8-0.5,1.2c-0.3,0.4-0.5,0.8-0.9,1.2
	c-0.3,0.3-0.5,0.6-0.7,1c-0.3,0.6,0,0.9-0.2,1s-0.4-0.4-0.4-0.7c-0.1-0.2,0-0.5,0.1-0.7c0.1-0.3,0.2-0.5,0.4-0.7l0.4-0.7
	c0.3-0.5,0.5-1,0.6-1.5c0.1-0.4,0.1-0.9,0-1.3c0,0,0-0.2-0.2-0.2c-0.2,0-0.3,0.2-0.3,0.3c-0.1,0.3,0,0.3-0.2,0.9
	c-0.1,0.6-0.2,0.4-0.3,0.7c-0.1,0.3-0.1,0.6-0.1,0.9c0,0.2-0.1,0.1-0.1,0.1c-0.1-0.3-0.2-0.5-0.2-0.8c0-0.2,0-0.4,0-0.6
	c0-0.3,0.1-0.7,0.2-1c0.1-0.4,0.1-0.7,0.1-1.1c0-0.5-0.2-0.6-0.2-0.6s-0.1-0.1-0.3-0.1c-0.2,0-0.2,0.4-0.2,0.4
	c0,0.3-0.1,0.6-0.1,0.9c-0.2,0.8-0.6,1.5-1.1,2.2c-0.4,0.6-0.9,1.1-1.5,1.6c-0.3,0.3-1.4,1-1.4,1l-1.2,0.8c-0.3,0.3-0.5,0.6-0.7,1
	c-0.2,0.5-0.2,1-0.1,1.5c0.1,0.3,0.2,0.6,0.4,0.9c0.2,0.2,0.3,0.4,0.3,0.7c0,0.2,0,0.3,0,0.5c0,0.1,0,0.3,0,0.4c0,0.3,0,0.4-0.1,0.6
	c-0.1,0.1-0.2,0.2-0.4,0.3c0,0-0.3,0.2-0.5,0.3c-1.5,0.9-2.8,2.2-3.8,3.6c-0.4,0.4-0.1,0.4-0.5,0.9c-0.2,0.3-0.8,0.3-1,0.7
	s0.6,1-0.4,1.4c-1.2,0.4-2.5,0.4-3.7,0c-0.1-0.5,0.4-1.1,0.6-1.3c0.9-1,1.8-1,2.1-1.9c0.1-0.2,0-0.3,0.8-0.9c1.2-0.9,2.4-1.9,3.5-3
	c0.3-0.3,0.5-0.6,0.7-1c0.1-0.2,0-0.5-0.1-0.6l-0.4-0.6l-0.7-1.3c0,0-0.3-0.7-0.5-1.1s-0.5-1.5-0.5-1.5c-0.1-0.5-0.2-1-0.3-1.6
	c-0.1-1,0.1-1.9,0.4-2.8c0.4-1.4,1.2-2,1.6-3.4c0.1-0.4,0.1-1.1-0.1-1.1c-0.2,0-0.2,0.6-0.4,1c-0.6,1.4-1.3,2-1.7,3.4
	c-0.3,0.8-0.4,1.7-0.4,2.5c0,0.5,0,1,0.1,1.5c0.1,0.3,0.1,0.6,0.3,0.9c0.1,0.2,0.3,0.7,0.3,0.7c0.2,0.3,0.3,0.7,0.4,1.1
	c0,0.1,0.1,0.3,0.1,0.4c0,0.3,0,0.3-0.1,0.5c-0.1,0.2-0.1,0.5-0.6,0.6c-0.5,0-0.9,0-1.4-0.2c0,0-3.8-1.1-6.2-0.8
	c-0.4,0.1-0.8,0.2-1.2,0.2c-0.4,0-0.7-0.3-1.1-0.2c-0.1,0-0.1,0.1-0.2,0.1c-0.6,0.4-0.2,1.2-1.8,0.8c-1-0.2-2.3-0.9-2.1-1.3
	s0.7-0.6,1.5-1c0.8-0.2,1.6-0.3,2.4-0.3c0.4-0.1,0.9-0.2,1.3-0.2c0.4,0,0.8,0,1.1,0.1l1.6,0.2h3.1c0,0,0.6,0,0.8-0.1
	s0.4-0.5,0.5-0.7c0.1-0.2,0.1-0.4,0-0.5l-0.1-0.2l-0.3-0.5l-0.6-0.9l-0.6-1.2c0,0-0.4-0.8-0.6-1.4c-0.2-0.5-0.4-0.9-0.5-1.4
	c-0.1-0.5-0.2-1-0.3-1.6C147.5,50.3,147.5,49.7,147.7,49.1z"/>
<path class="st3" d="M168.1,48c0.6-0.8,0.8-1.8,0.8-2.8c0-0.7-0.1-1.4-0.3-2.1v-0.1c0,0-0.1-0.2-0.2,0c0,0.1,0,0.2,0,0.3V45
	c0,0.6-0.2,1.1-0.3,1.7c-0.5,1.4-1.7,2-1.9,2.5C166,50.1,167.3,49,168.1,48z"/>
<path class="st3" d="M161.2,50.6c-0.2,0-0.3,0.2-0.3,0.3c0,0.3,0.1,0.5,0.1,0.8s-0.4,0.9-0.1,1c0.4,0.3,0.8-1.6,0.7-1.9
	C161.3,50.6,161.2,50.6,161.2,50.6z"/>
<path class="st3" d="M156.5,63.5c-0.1,0-0.2,0-0.2,0c-0.1,0-0.1,0.1-0.1,0.2c0,0,0,0.2,0.1,0.2C156.3,63.9,156.6,63.6,156.5,63.5
	C156.5,63.6,156.5,63.5,156.5,63.5z"/>
<path class="st3" d="M152.1,66.7C152.1,66.7,152.1,66.7,152.1,66.7C152.1,66.8,152.2,66.7,152.1,66.7c0.1,0.1,0.9-0.5,1.3-0.9
	s1.2-1.2,1.2-1.2c0,0,0-0.1,0-0.1c0,0,0,0,0,0c-0.1,0-0.2,0-0.3,0.1c-0.1,0-0.2,0.1-0.2,0.2c-0.1,0-0.3,0.3-0.3,0.3l-0.6,0.6
	l-0.4,0.3l-0.4,0.3l-0.2,0.2l0,0.1v0.1c0,0,0,0.1,0,0.1l0,0C152.2,66.6,152.2,66.6,152.1,66.7z"/>
<path class="st3" d="M150.8,67.5c-0.1,0-0.1,0-0.2,0c-0.1,0.1-0.2,0.2-0.3,0.3c0,0-0.1,0.1,0,0.2s0.2,0,0.2,0
	c0.1-0.1,0.2-0.1,0.2-0.2C150.8,67.7,150.9,67.6,150.8,67.5C150.8,67.5,150.8,67.5,150.8,67.5z"/>
<path class="st3" d="M148.2,70.1c0,0-0.1-0.2-0.2-0.1c-0.1,0.1-0.3,0.2-0.4,0.3l-0.2,0.3c0,0-0.2,0.3,0.1,0.3c0.5,0,0.2-0.3,0.3-0.4
	s0.4-0.1,0.4-0.2C148.3,70.2,148.3,70.1,148.2,70.1z"/>
<path class="st3" d="M139.7,59.9c0,0-0.3,0.1-0.3,0.2c0,0.1,0.2,0.2,0.2,0.2s0.1,0.1,0.3,0C140,60.2,140,60,140,60
	S140.1,59.8,139.7,59.9z"/>
<path class="st3" d="M144.4,59.7c0,0,0-0.1-0.2-0.1s-0.3,0-0.3,0.1s0,0.1,0.2,0.1C144.3,59.8,144.4,59.8,144.4,59.7z"/>
<path class="st3" d="M148.9,59.8c-0.2,0-0.3,0-0.5,0c-0.4,0-0.7,0-1.1,0c-0.6,0-1.5-0.2-1.5-0.2s-0.1,0-0.2,0s0.1,0.2,0.2,0.3
	c0.4,0.2,0.8,0.2,1.3,0.2c0.2,0,0.5,0,0.7,0c0.3,0,0.6,0,0.9-0.1C148.9,60,149,59.8,148.9,59.8z"/>
<path class="st3" d="M151.4,59.1c-0.1-0.1-0.2-0.1-0.2,0c-0.1,0.1-0.2,0.1-0.2,0.2c0,0-0.1,0.1,0.1,0.1c0.1,0,0.2,0,0.3-0.1
	C151.3,59.3,151.5,59.2,151.4,59.1z"/>
<path class="st3" d="M149.2,28.8c0.7-0.7,1.3-1.5,1.8-2.3c0.4-0.8,0.7-2.6,0.3-2.2c-0.2,0.2-0.4,1.2-0.7,1.9c-0.5,0.8-1,1.6-1.5,2.4
	C149.1,28.6,148.8,29.1,149.2,28.8z"/>
<path class="st3" d="M144.9,31.3c-0.1,0.1-0.1,0.1-0.1,0.2c0.1,0.1,0.3,0,0.3,0c0.3-0.1,0.7-0.2,1-0.2c0.4,0,0.8,0,1.2,0.1
	c0,0,0.3,0.1,0.4,0.1l0.3,0.1c0,0,0.2,0.1,0.3,0s-0.6-0.8-1.4-0.9C146.3,30.8,145.6,30.9,144.9,31.3L144.9,31.3z"/>
<path class="st3" d="M139.9,35.7c0.1,0.1,0.5-0.7,0.8-1.2s0.7-1,0.7-1s0.2-0.3-0.2-0.1c-0.4,0.2-0.6,0.5-0.8,0.9
	C140.2,34.7,140,35.2,139.9,35.7z"/>
<path class="st3" d="M137,32.3c0,0.3,0.1,0.5,0.3,0.7c0.4,0.4,0.5,0.7,0.7,0.5c0.1-0.1-0.2-0.6-0.4-0.7c-0.1-0.1-0.2-0.2-0.2-0.3
	l-0.1-0.1L137,32.3L137,32.3L137,32.3z"/>
<path class="st3" d="M135.9,29.4c0,0-0.4,0.1-0.5,0.2s0.4,0.1,0.4,0.1s0.4,0,0.4-0.1C136.2,29.4,136.2,29.4,135.9,29.4z"/>
<path class="st3" d="M129.8,39.5c-0.2-0.1-0.2,0.3-0.2,0.5s0.1,0.4,0.1,0.4s0.2-0.2,0.2-0.4C129.9,39.8,130,39.5,129.8,39.5z"/>
<path class="st3" d="M136.1,47c0,0-0.4-0.3-0.4-0.2s0.3,0.6,0.3,0.6c0.1,0.1,0.2,0.1,0.3,0.1c0.1,0,0.1-0.2,0.1-0.2
	C136.4,47.3,136.2,47,136.1,47z"/>
<path class="st3" d="M133.5,38.8c-0.1,0-0.1,0-0.1,0.1c0,0.1,0,0.3,0,0.5c0,0.2,0,0.4,0,0.6c0,0.2,0.1,0.4,0.1,0.6
	c0.1,0.2,0.2,0.4,0.3,0.6c0,0,0.1,0.2,0.2,0.2s0.1-0.1,0.1-0.1s-0.3-1.2-0.3-1.3c0-0.4,0-0.9,0-0.9V39
	C133.7,38.9,133.6,38.8,133.5,38.8C133.5,38.8,133.5,38.8,133.5,38.8z"/>
<path class="st3" d="M133.9,35.3c0,0-0.2,0-0.3,0.3c-0.2,0.3-0.1,0.4-0.1,0.5s0.1,0,0.3-0.3S134,35.4,133.9,35.3
	C134,35.4,134,35.3,133.9,35.3z"/>
<path class="st3" d="M138.4,38.5c0,0,0.2,0.3-0.2,0.2c-0.5-0.2-1-0.5-1.5-0.8c-0.3-0.2-0.8-0.2-0.6-0.4c0,0,0-0.1,0.1-0.1
	c0.1,0,0.2,0,0.3,0.1l0.6,0.2c0.2,0.1,0.4,0.2,0.6,0.3c0.2,0.1,0.6,0.4,0.6,0.4L138.4,38.5z"/>
<path class="st3" d="M148.8,47.4c0.1,0.3-1.2-0.7-1.9-1.2c-1.8-1.4-4-4.3-3.8-4.5c0.2-0.2,1.1,1.1,2.5,2.5S148.7,47.2,148.8,47.4z"
	/>
<path class="st3" d="M154.1,46.1c-0.4,0.3-0.5,0.9-0.3,1.4c0.2,0.4,0.3-0.6,0.5-0.9s0.4-0.2,0.7-0.5
	C155.6,45.7,154.6,45.5,154.1,46.1z"/>
<path class="st3" d="M151.8,37c-0.3,0-0.3,0.4-0.2,0.7c0.2,1.2,0.7,2.4,1.6,3.3c0.5,0.6,1.8,1.6,2,1.5c-0.8-0.8-1.5-1.6-2.1-2.5
	c-0.5-0.7-0.9-1.6-1-2.5C152,37.5,152.1,37,151.8,37z"/>
<path class="st3" d="M146.7,17.5c-0.5,0.2-1.1,0.4-1.6,0.6c0,0,0,0.1,0.1,0.1c0.6,0,1.2-0.2,1.7-0.4c0.3-0.2,0.6-0.4,0.8-0.8
	c0,0,0.2-0.4-0.2-0.1C147.3,17.1,147,17.3,146.7,17.5z"/>
<path class="st3" d="M153.9,15.2c-0.1,0-0.2,0-0.3,0c-0.1,0.1-0.1,0.2-0.1,0.2c0.1,0.1,0.2,0.1,0.4,0.2c0.1,0,0.5,0.2,0.5,0.1
	c-0.1-0.1-0.1-0.3-0.3-0.4C154,15.2,153.9,15.2,153.9,15.2z"/>
<path class="st3" d="M150.5,21.4c0,0.1,0.6-0.1,0.9-0.2s0.2-0.4,0.2-0.4s0-0.3,0-0.2C151.2,21.1,150.5,21.3,150.5,21.4z"/>
<path class="st3" d="M150.5,19.9c0.2-0.5-0.7,0.5-1.1,0.7c-0.3,0.1-0.7,0.4-0.7,0.4s-0.1,0.1,0,0.1s0.6,0.1,1-0.1
	c0.1-0.1,0.4-0.6,0.4-0.6C150.2,20.2,150.4,20,150.5,19.9z"/>
<path class="st3" d="M150.4,21.8c0.4,0.1,0.9,0.1,1.3,0c0.2-0.1,0.3-0.4,0.3-0.4s0.1-0.3,0-0.2C151.5,21.7,150.3,21.8,150.4,21.8z"
	/>
<path class="st3" d="M134,31.2c0,0-0.1-0.1-0.3,0.2c-0.2,0.3-1.1,1.6-0.9,1.8s0.9-1.2,1.1-1.4C134,31.6,134.1,31.4,134,31.2
	C134,31.2,134,31.2,134,31.2z"/>
<path class="st3" d="M152.7,54.7c-0.1,0.5,0,1,0.2,1.5c0.4,0.4,0.1-0.7,0.2-1.1c0-0.3,0.1-0.6,0.3-0.9
	C153.6,53.5,152.9,53.8,152.7,54.7z"/>
<path class="st3" d="M149.5,17c-0.2,0-0.4,0.1-0.5,0.1c-0.1,0.1-0.2,0.2-0.3,0.3c0,0.1,0,0.1,0,0.2c0.1,0.1,0.4-0.1,0.6,0
	c0.2,0,0.3,0.1,0.4,0.3c0.1,0.1,0.3,0.3,0.4,0.2c0.1-0.1,0.1-0.4,0.1-0.4c-0.1-0.2-0.2-0.4-0.4-0.6C149.8,17.1,149.7,17,149.5,17z"
	/>
<path class="st3" d="M144.8,20.2c0,0-0.2,0-0.1,0.2c0,0.2,0.1,0.2,0.1,0.2s0.3-0.1,0.3-0.3C145.1,20.1,144.8,20.2,144.8,20.2z"/>
<path class="st3" d="M142.5,19.2c-0.1,0-0.2,0.1-0.3,0.2c-0.1,0.1-0.1,0.3-0.2,0.4c0,0-0.1,0.3,0,0.4s0.2-0.2,0.4-0.3l0.2-0.1
	c0.1-0.1,0.3,0,0.3-0.2C142.9,19.4,142.7,19.2,142.5,19.2z"/>
<path class="st3" d="M150,16.5c0,0-0.4,0-0.4,0.1c0,0.1,0.2,0,0.3,0.1c0.1,0,0.2,0.1,0.3,0.2c0.1,0.1,0.1,0.2,0.2,0.2s0.1,0,0.1,0
	c0-0.2-0.1-0.3-0.3-0.4C150.2,16.6,150.1,16.5,150,16.5z"/>
<path class="st3" d="M154.3,18.1c0,0.1-0.1,0.2-0.1,0.3c0,0-0.1,0.4,0.3,0.3c0.2-0.1,0.4-0.1,0.5-0.2c0.3-0.1,0.3-0.1,0.5-0.1
	c0.1,0,0.2,0,0.2,0c0.1,0,0.1-0.1-0.2-0.2c-0.3,0-0.6-0.1-0.9,0C154.6,18.1,154.4,17.9,154.3,18.1z"/>
<path class="st3" d="M154.5,16.5c-0.1,0-0.2,0-0.3,0c-0.1,0.1-0.1,0.1-0.1,0.1c0.1,0.1,0.2,0.1,0.4,0.2c0.2,0,0.5,0.2,0.5,0
	c-0.1-0.1-0.1-0.3-0.3-0.4C154.6,16.5,154.6,16.5,154.5,16.5z"/>
<path class="st3" d="M155.2,19.5c-0.1,0-0.2,0-0.4,0c-0.1,0.1-0.1,0.1-0.1,0.1c0.1,0.1,0.2,0.1,0.4,0.2c0.2,0,0.5,0.1,0.5,0
	c0-0.1-0.2-0.3-0.3-0.3C155.3,19.5,155.3,19.5,155.2,19.5z"/>
<path class="st3" d="M155.4,20.6c-0.1,0-0.3,0-0.4,0c-0.2,0.1-0.1,0.2-0.1,0.2c0.1,0.1,0.3,0.2,0.4,0.2c0.2,0,0.5,0.2,0.5,0.1
	c-0.1-0.2-0.2-0.3-0.3-0.4C155.5,20.6,155.4,20.6,155.4,20.6z"/>
<path class="st3" d="M155.5,21.7c-0.1,0-0.3,0-0.4,0c-0.2,0.1-0.1,0.2-0.1,0.2c0.1,0.1,0.3,0.2,0.4,0.2c0.2,0,0.6,0.2,0.6,0.1
	c-0.1-0.2-0.2-0.3-0.3-0.4C155.6,21.7,155.5,21.7,155.5,21.7z"/>
<path class="st3" d="M155.4,23c-0.1,0-0.3,0-0.4,0c-0.2,0.1-0.1,0.2-0.1,0.2c0.1,0.1,0.3,0.2,0.4,0.2c0.2,0,0.6,0.2,0.6,0.1
	c-0.1-0.2-0.2-0.3-0.3-0.5C155.5,23,155.5,23,155.4,23z"/>
<path class="st3" d="M155.2,25.5c-0.1,0-0.3,0-0.4,0c-0.2,0.1-0.1,0.2-0.1,0.2c0.1,0.1,0.3,0.2,0.4,0.2c0.2,0,0.6,0.2,0.6,0.1
	c-0.1-0.2-0.2-0.3-0.3-0.4C155.4,25.6,155.3,25.6,155.2,25.5z"/>
<path class="st3" d="M155.4,24.3c-0.2,0-0.3,0-0.5,0.1c-0.2,0.1-0.1,0.2-0.1,0.2c0.2,0.1,0.3,0.2,0.5,0.3c0.2,0,0.7,0.2,0.6,0.1
	c-0.1-0.2-0.2-0.4-0.4-0.5C155.6,24.3,155.5,24.3,155.4,24.3z"/>
<path class="st3" d="M155.1,26.7c-0.1,0-0.2,0-0.3,0c-0.1,0.1-0.1,0.1-0.1,0.1c0.1,0.1,0.2,0.2,0.4,0.2c0.2,0,0.5,0.2,0.5,0.1
	c-0.1-0.1-0.1-0.3-0.3-0.4C155.2,26.7,155.2,26.7,155.1,26.7z"/>
<path class="st3" d="M154.9,27.8c-0.1,0-0.2,0-0.3,0c-0.1,0.1-0.1,0.1-0.1,0.1c0.1,0.1,0.2,0.1,0.3,0.2c0.1,0,0.4,0.1,0.4,0
	c-0.1-0.1-0.1-0.2-0.2-0.3C155,27.8,155,27.8,154.9,27.8z"/>
<path class="st3" d="M154.7,28.8c-0.1,0-0.2,0-0.3,0c-0.1,0.1-0.1,0.1-0.1,0.1c0.1,0.1,0.2,0.1,0.3,0.1c0.1,0,0.4,0.1,0.4,0
	C155,29,154.9,28.9,154.7,28.8C154.8,28.8,154.7,28.8,154.7,28.8z"/>
<path class="st3" d="M154.5,29.6c-0.1,0-0.2,0-0.2,0c-0.1,0.1-0.1,0.1-0.1,0.1c0.1,0.1,0.2,0.1,0.3,0.1c0.1,0,0.4,0.1,0.3,0
	c0-0.1-0.1-0.2-0.2-0.3C154.5,29.6,154.5,29.6,154.5,29.6z"/>
<path class="st3" d="M154.2,30.6c-0.1,0-0.1,0-0.2,0c-0.1,0-0.1,0.1-0.1,0.1c0.1,0.1,0.1,0.1,0.2,0.1c0.1,0,0.3,0.1,0.3,0
	C154.4,30.7,154.3,30.7,154.2,30.6L154.2,30.6z"/>
<path class="st3" d="M153.8,31.5c-0.1,0-0.1,0-0.2,0c-0.1,0,0,0.1,0,0.1c0.1,0,0.1,0.1,0.2,0.1c0.1,0,0.2,0.1,0.2,0
	S153.9,31.5,153.8,31.5C153.9,31.5,153.8,31.5,153.8,31.5z"/>
<path class="st3" d="M153.5,32.4c-0.1,0-0.1,0-0.2,0c-0.1,0,0,0.1,0,0.1c0.1,0,0.1,0.1,0.2,0.1c0.1,0,0.2,0.1,0.2,0
	c0-0.1-0.1-0.1-0.1-0.2L153.5,32.4z"/>
<path class="st3" d="M130.3,36.7c0,0-0.2,0.3-0.1,0.5s0.3-0.3,0.3-0.3s0.2-0.5,0.2-0.6C130.6,36.3,130.6,36.5,130.3,36.7z"/>
<path class="st2" d="M143.9,67.2c0,0-0.1-0.2-0.3,0c-0.1,0.2-0.4,0.3-0.6,0.3c-0.2,0-0.4-0.1-0.6-0.1l-0.4-0.2
	c-0.4-0.1-0.7-0.2-1.1-0.2c-0.6,0-1.3,0.2-1.7,0.6c-0.5,0.5-0.7,1.3-0.4,2c0.2,0.4,0.6,0.8,1,1.1c0.6,0.3,0.8,0.5,0.8,0.5l1,0.4
	l0.9,0.3c0,0,1.3,0.4,1.4,1.4c0.2,1.1-0.7,2.2-1.8,2.3c-0.1,0-0.3,0-0.4,0c-1.1,0.2-2.3-0.3-2.9-1.3c-0.2-0.3-0.2-0.7-0.1-1l0.1-0.2
	h0.1c0.2,0.1,0.3,0.2,0.5,0.2c0.4-0.1,0.7-0.5,0.7-0.9c-0.1-0.4-0.4-0.7-0.8-0.6c-0.2,0-1.2,0.3-1.2,1.8c0,0.9,0.5,1.8,1.3,2.2
	c0.6,0.4,1.3,0.5,2,0.5c0.7,0,1.4-0.2,2-0.5c0.9-0.5,1.5-1.4,1.6-2.5c0.1-0.9-0.3-1.8-1-2.3c-0.2-0.2-0.5-0.3-0.8-0.4l-1.3-0.6
	l-0.9-0.4l-0.5-0.3l-0.3-0.2c0,0-0.7-0.6-0.3-1.2s1.5-0.4,1.5-0.4c1,0.2,1.9,0.8,2.5,1.7l0.3,0.4v0.1l0.2-0.1
	c-0.2-0.5-0.3-1-0.4-1.4C144,67.8,143.9,67.2,143.9,67.2z"/>
<path class="st2" d="M154.3,72.9c0.1,0.2,0.3,0.2,0.6,0.3c0.4,0,0.8-0.3,0.8-0.7c0,0,0,0,0,0c0-0.3-0.3-0.6-0.6-0.7
	c-0.5-0.1-1.1,0.2-1.3,0.7c-0.3,0.5-0.3,1.1-0.2,1.6c0.2,0.8,0.7,1.5,1.4,1.9c0.8,0.4,1.7,0.5,2.6,0.2c0.7-0.3,1.4-0.7,1.9-1.3
	c0.6-0.6,1-1.4,1.3-2.2l0.3-0.8h0.4c0.3,0,0.6-0.1,0.9-0.2c0.2-0.2,0.4-0.4,0.6-0.7v-0.1l-0.2-0.1c-0.2,0.2-0.4,0.3-0.6,0.4
	c-0.2,0-0.5,0-0.8,0l0.4-1c0,0,0.4-0.8,0.5-1s0.6-0.8,0.6-0.8c0.6,0,1.3-0.1,1.9-0.2c0.5-0.1,1-0.3,1.5-0.4l1.2-0.5l0.3-0.2
	l-0.1-0.2c-0.9,0.3-1.7,0.5-2.6,0.6c-0.8,0.1-1.7,0.1-2.5,0l-1.7-0.3c-0.3,0-0.7-0.1-1-0.1c-0.4,0-0.8,0.1-1.3,0.2
	c-0.4,0.1-0.8,0.3-1.2,0.5c-0.4,0.3-1.3,1-0.9,2s2.1,0.5,2.4-0.3l0.1-0.2v-0.1l-0.2-0.1l-0.2,0.2c0,0-0.6,0.5-1.1,0.2
	c-0.3-0.2-0.3-0.5-0.2-0.8c0,0,0,0,0.1-0.1c0.3-0.3,0.6-0.5,1-0.5c0.5-0.1,1.1,0,1.6,0.1l1,0.2l0.6,0.1h0.2l-0.4,0.4
	c-0.4,0.4-0.7,0.8-0.9,1.2c-0.4,0.7-0.5,1.1-0.5,1.1V71c-0.3,0-0.5,0.1-0.8,0.2c-0.2,0.1-0.4,0.3-0.5,0.4l-0.1,0.2l0.2,0.2
	c0.1-0.1,0.3-0.2,0.5-0.3c0.1-0.1,0.3-0.1,0.5,0c0,0-0.4,0.9-0.6,1.3c-0.2,0.5-0.5,1-0.9,1.4c-0.4,0.6-1,0.9-1.7,1
	c-0.7,0.1-1.4-0.2-1.9-0.8c-0.3-0.3-0.4-0.7-0.4-1.1C154.1,73.3,154.2,73.1,154.3,72.9z"/>
<polygon class="st4" points="116.9,8.4 116.9,6.4 150,0.2 183,6.4 183,8.4 150,2.3 "/>
<polygon class="st5" points="116.9,8.4 116.9,10.5 150,4.5 183,10.5 183,8.4 150,2.3 "/>
<path class="st6" d="M150,8.2c20.6,0,32.9,7.3,33,7.3l0.1-5l-33-6.1l-33,6.1l0.1,5C117.1,15.5,129.4,8.2,150,8.2z"/>
</svg>
