<?xml version="1.0" encoding="utf-8"?>
<!-- Generator: Adobe Illustrator 28.2.0, SVG Export Plug-In . SVG Version: 6.00 Build 0)  -->
<!DOCTYPE svg PUBLIC "-//W3C//DTD SVG 1.1//EN" "http://www.w3.org/Graphics/SVG/1.1/DTD/svg11.dtd" [
	<!ENTITY ns_extend "http://ns.adobe.com/Extensibility/1.0/">
	<!ENTITY ns_ai "http://ns.adobe.com/AdobeIllustrator/10.0/">
	<!ENTITY ns_graphs "http://ns.adobe.com/Graphs/1.0/">
	<!ENTITY ns_vars "http://ns.adobe.com/Variables/1.0/">
	<!ENTITY ns_imrep "http://ns.adobe.com/ImageReplacement/1.0/">
	<!ENTITY ns_sfw "http://ns.adobe.com/SaveForWeb/1.0/">
	<!ENTITY ns_custom "http://ns.adobe.com/GenericCustomNamespace/1.0/">
	<!ENTITY ns_adobe_xpath "http://ns.adobe.com/XPath/1.0/">
]>
<svg version="1.1" id="Layer_1" xmlns:x="&ns_extend;" xmlns:i="&ns_ai;" xmlns:graph="&ns_graphs;"
	 xmlns="http://www.w3.org/2000/svg" xmlns:xlink="http://www.w3.org/1999/xlink" x="0px" y="0px" viewBox="0 0 270.35 65.66"
	 style="enable-background:new 0 0 270.35 65.66;" xml:space="preserve">
<style type="text/css">
	.st0{enable-background:new    ;}
	.st1{fill:#E10600;}
	.st2{fill:#FFFFFF;}
	.st3{fill-rule:evenodd;clip-rule:evenodd;fill:#FFFFFF;}
</style>
<metadata>
	<sfw  xmlns="&ns_sfw;">
		<slices></slices>
		<sliceSourceBounds  bottomLeftOrigin="true" height="65.66" width="270.35" x="682.36" y="-987.25"></sliceSourceBounds>
	</sfw>
</metadata>
<g>
	<g class="st0">
		<path class="st1" d="M149.07,31.88h-8.46v-9.13h8.46v2.8h-5.24v0.41h5.24v2.7h-5.24v0.41h5.24V31.88z"/>
		<path class="st1" d="M153.34,31.88h-3.97l3.68-4.62l-3.68-4.52h4.03l1.8,2.2l1.75-2.2h3.93l-3.68,4.63l3.71,4.51h-4.06l-1.8-2.22
			L153.34,31.88z"/>
		<path class="st1" d="M164.28,31.88h-3.04v-9.13h6.09c0.52,0,0.97,0.08,1.35,0.25c0.38,0.17,0.7,0.39,0.95,0.66
			c0.25,0.28,0.44,0.59,0.56,0.94c0.12,0.35,0.18,0.71,0.18,1.08s-0.06,0.73-0.18,1.1s-0.31,0.69-0.56,0.98
			c-0.25,0.29-0.57,0.52-0.95,0.7c-0.38,0.18-0.83,0.27-1.35,0.27h-3.04V31.88z M164.28,25.92h2.98v-0.38h-2.98V25.92z"/>
		<path class="st1" d="M179.07,31.88h-8.46v-9.13h8.46v2.8h-5.24v0.41h5.24v2.7h-5.24v0.41h5.24V31.88z"/>
		<path class="st1" d="M187.96,31.88h-3.81c-0.67,0-1.3-0.12-1.88-0.36c-0.58-0.24-1.07-0.57-1.49-0.98s-0.75-0.9-0.99-1.46
			c-0.24-0.56-0.36-1.15-0.36-1.77s0.12-1.22,0.36-1.77c0.24-0.56,0.57-1.04,0.99-1.45s0.92-0.74,1.49-0.98
			c0.58-0.24,1.2-0.37,1.88-0.37h3.81v2.8h-3.02c-0.61,0-1.11,0.14-1.51,0.43c-0.4,0.28-0.6,0.73-0.6,1.34c0,0.6,0.2,1.04,0.6,1.33
			c0.4,0.29,0.9,0.43,1.51,0.43h3.02V31.88z"/>
		<path class="st1" d="M194.96,31.88h-3.17v-6.33h-3.35v-2.8h9.85v2.8h-3.34V31.88z"/>
	</g>
	<g class="st0">
		<path class="st2" d="M147.12,44.05h-3.17v-6.33h-3.35v-2.8h9.85v2.8h-3.34V44.05z"/>
		<path class="st2" d="M154.11,44.05h-3.17v-9.13h3.17v3.04h3.4v-3.04h3.17v9.13h-3.17v-3.12h-3.4V44.05z"/>
		<path class="st2" d="M169.62,44.05h-8.46v-9.13h8.46v2.8h-5.24v0.41h5.24v2.7h-5.24v0.41h5.24V44.05z"/>
	</g>
	<g class="st0">
		<path class="st1" d="M177.35,44.24c-0.64,0-1.25-0.1-1.84-0.29c-0.58-0.2-1.1-0.48-1.53-0.85c-0.44-0.37-0.79-0.84-1.05-1.41
			s-0.39-1.22-0.39-1.96v-4.81h3.29v4.63c0,0.46,0.14,0.84,0.41,1.14c0.28,0.3,0.65,0.45,1.11,0.45c0.46,0,0.83-0.15,1.11-0.45
			c0.28-0.3,0.41-0.68,0.41-1.14v-4.63h3.29v4.81c0,0.74-0.13,1.39-0.39,1.96c-0.26,0.56-0.61,1.03-1.05,1.41s-0.95,0.66-1.53,0.85
			C178.61,44.14,178,44.24,177.35,44.24z"/>
		<path class="st1" d="M191.3,44.21c-0.54,0-0.99-0.14-1.37-0.41c-0.38-0.27-0.79-0.66-1.24-1.16l-2.87-3.24v4.65h-3.17v-7
			c0-0.37,0.06-0.7,0.18-0.98s0.27-0.51,0.46-0.69c0.19-0.18,0.42-0.32,0.68-0.41c0.26-0.09,0.53-0.14,0.8-0.14
			c0.44,0,0.82,0.1,1.14,0.29c0.32,0.19,0.66,0.49,1.02,0.91l3.08,3.56v-4.65h3.17v7.43c0,0.34-0.06,0.63-0.17,0.87
			s-0.26,0.43-0.44,0.58c-0.18,0.15-0.38,0.25-0.61,0.32C191.73,44.18,191.51,44.21,191.3,44.21z"/>
	</g>
	<g class="st0">
		<path class="st2" d="M202.12,44.05h-8.46v-9.13h8.46v2.8h-5.24v0.41h5.24v2.7h-5.24v0.41h5.24V44.05z"/>
		<path class="st2" d="M206.39,44.05h-3.97l3.68-4.62l-3.68-4.52h4.03l1.8,2.2l1.75-2.2h3.93l-3.68,4.63l3.71,4.51h-4.05l-1.8-2.22
			L206.39,44.05z"/>
		<path class="st2" d="M217.33,44.05h-3.04v-9.13h6.09c0.52,0,0.97,0.08,1.35,0.25c0.38,0.17,0.7,0.39,0.95,0.66
			c0.25,0.28,0.44,0.59,0.56,0.94c0.12,0.35,0.18,0.71,0.18,1.08s-0.06,0.73-0.18,1.1c-0.12,0.37-0.31,0.69-0.56,0.98
			c-0.25,0.29-0.57,0.52-0.95,0.7s-0.83,0.27-1.35,0.27h-3.04V44.05z M217.33,38.1h2.98v-0.38h-2.98V38.1z"/>
		<path class="st2" d="M232.13,44.05h-8.46v-9.13h8.46v2.8h-5.24v0.41h5.24v2.7h-5.24v0.41h5.24V44.05z"/>
		<path class="st2" d="M241.01,44.05h-3.81c-0.67,0-1.3-0.12-1.88-0.36s-1.07-0.57-1.49-0.98c-0.42-0.41-0.75-0.9-0.99-1.46
			c-0.24-0.56-0.36-1.15-0.36-1.77s0.12-1.22,0.36-1.77c0.24-0.56,0.57-1.04,0.99-1.45c0.42-0.41,0.92-0.74,1.49-0.98
			s1.2-0.37,1.88-0.37h3.81v2.8h-3.02c-0.61,0-1.11,0.14-1.51,0.43c-0.4,0.28-0.6,0.73-0.6,1.34c0,0.6,0.2,1.04,0.6,1.33
			c0.4,0.29,0.9,0.43,1.51,0.43h3.02V44.05z"/>
		<path class="st2" d="M248.02,44.05h-3.17v-6.33h-3.35v-2.8h9.85v2.8h-3.34V44.05z"/>
		<path class="st2" d="M260.3,44.05h-8.46v-9.13h8.46v2.8h-5.24v0.41h5.24v2.7h-5.24v0.41h5.24V44.05z"/>
		<path class="st2" d="M265.14,44.05h-4.35v-9.13h4.23c0.79,0,1.51,0.11,2.17,0.34s1.22,0.54,1.69,0.94
			c0.46,0.4,0.82,0.88,1.08,1.43c0.26,0.55,0.39,1.15,0.39,1.79c0,0.64-0.12,1.24-0.35,1.81c-0.23,0.56-0.57,1.06-1.01,1.47
			c-0.44,0.42-0.99,0.75-1.64,0.99S265.97,44.05,265.14,44.05z M263.96,41.25h0.91c0.31,0,0.6-0.03,0.88-0.09
			c0.28-0.06,0.52-0.16,0.72-0.3c0.2-0.14,0.37-0.33,0.49-0.55c0.12-0.23,0.18-0.51,0.18-0.84c0-0.29-0.06-0.55-0.18-0.77
			c-0.12-0.22-0.28-0.4-0.49-0.55c-0.2-0.15-0.44-0.25-0.72-0.32c-0.28-0.07-0.57-0.1-0.88-0.1h-0.91V41.25z"/>
	</g>
	<g class="st0">
		<path class="st2" d="M141.35,56.23v-0.77h1.75v-3.98c0-0.08-0.02-0.14-0.06-0.19s-0.1-0.07-0.17-0.07h-1.34v-0.77H143
			c0.34,0,0.59,0.08,0.75,0.25c0.15,0.17,0.23,0.42,0.23,0.76v3.98h1.54v0.77H141.35z"/>
		<path class="st2" d="M146.95,52.89l2.15-1.65h-3.16v-0.77h4.66v0.62l-2.43,1.88h0.68c0.59,0,1.04,0.11,1.33,0.33
			c0.29,0.22,0.44,0.54,0.44,0.94v0.64c0,0.53-0.18,0.89-0.53,1.08c-0.35,0.19-0.86,0.28-1.53,0.28h-2.55v-0.77h2.8
			c0.36,0,0.61-0.05,0.74-0.16s0.2-0.27,0.2-0.48v-0.41c0-0.21-0.07-0.38-0.2-0.52s-0.39-0.2-0.76-0.2h-1.6
			c-0.13,0-0.24-0.03-0.32-0.08c-0.09-0.05-0.14-0.12-0.16-0.2c-0.03-0.09-0.02-0.18,0.02-0.27
			C146.78,53.05,146.85,52.97,146.95,52.89z"/>
		<path class="st2" d="M151.29,54.29v-0.77h1.81v0.77H151.29z"/>
		<path class="st2" d="M153.19,56.23v-0.77h1.75v-3.98c0-0.08-0.02-0.14-0.06-0.19s-0.1-0.07-0.17-0.07h-1.34v-0.77h1.48
			c0.34,0,0.59,0.08,0.75,0.25c0.15,0.17,0.23,0.42,0.23,0.76v3.98h1.54v0.77H153.19z"/>
		<path class="st2" d="M160.79,52.78c0.57,0,1.01,0.11,1.31,0.33c0.3,0.22,0.45,0.63,0.45,1.23v0.38c0,0.56-0.18,0.96-0.55,1.18
			c-0.37,0.22-0.88,0.33-1.53,0.33h-2.41v-0.77h2.63c0.35,0,0.6-0.06,0.75-0.18c0.15-0.12,0.23-0.29,0.23-0.51v-0.53
			c0-0.21-0.08-0.38-0.23-0.51s-0.41-0.18-0.75-0.18h-2.63v-3.08h4.5v0.77h-3.61v1.55H160.79z"/>
		<path class="st2" d="M167.99,53.86l-1.46-0.4c-0.5-0.14-0.89-0.32-1.17-0.55c-0.27-0.23-0.41-0.56-0.41-0.99s0.16-0.78,0.49-1.05
			c0.33-0.27,0.82-0.4,1.49-0.4h2.69v0.77h-2.79c-0.37,0-0.62,0.06-0.77,0.19c-0.14,0.13-0.21,0.28-0.21,0.45
			c0,0.2,0.07,0.36,0.2,0.47c0.13,0.11,0.37,0.22,0.72,0.32l1.46,0.42c0.51,0.14,0.9,0.33,1.17,0.57c0.27,0.24,0.41,0.57,0.41,1
			c0,0.48-0.16,0.86-0.48,1.15s-0.81,0.43-1.47,0.43h-2.76v-0.77h2.85c0.34,0,0.59-0.07,0.74-0.2c0.16-0.13,0.23-0.31,0.23-0.54
			c0-0.24-0.07-0.41-0.2-0.53C168.6,54.07,168.35,53.96,167.99,53.86z"/>
		<path class="st2" d="M170.67,56.23v-5.77h4.62v0.77h-3.74v1.68h3.74v0.77h-3.74v1.78h3.74v0.77H170.67z"/>
		<path class="st2" d="M181.36,52.06v0.34c0,0.31-0.06,0.57-0.17,0.78c-0.12,0.21-0.27,0.37-0.47,0.49
			c-0.19,0.12-0.42,0.21-0.67,0.25c-0.25,0.05-0.52,0.07-0.8,0.07h-2.05v2.23h-0.88v-5.77h2.94c0.28,0,0.54,0.02,0.8,0.07
			c0.25,0.05,0.48,0.13,0.67,0.25c0.19,0.12,0.35,0.28,0.47,0.49S181.36,51.75,181.36,52.06z M180.43,52.42v-0.37
			c0-0.28-0.08-0.48-0.23-0.62c-0.15-0.13-0.42-0.2-0.82-0.2h-2.19v2h2.19c0.39,0,0.67-0.07,0.82-0.2
			C180.36,52.9,180.43,52.69,180.43,52.42z"/>
		<path class="st2" d="M183.9,56.23v-5h-2.31v-0.77h5.5v0.77h-2.31v5H183.9z"/>
		<path class="st2" d="M187.72,56.23v-5.77h4.62v0.77h-3.74v1.68h3.74v0.77h-3.74v1.78h3.74v0.77H187.72z"/>
		<path class="st2" d="M193.01,56.23l0.88-4.85c0.06-0.34,0.17-0.59,0.32-0.76c0.15-0.17,0.38-0.26,0.67-0.26
			c0.32,0,0.56,0.1,0.72,0.31s0.27,0.46,0.34,0.77l0.94,3.96c0.01,0.07,0.03,0.12,0.05,0.16c0.02,0.04,0.05,0.06,0.09,0.06
			c0.05,0,0.08-0.02,0.09-0.05s0.03-0.09,0.05-0.15l0.95-3.97c0.07-0.31,0.19-0.56,0.36-0.77s0.41-0.31,0.71-0.31
			c0.32,0,0.56,0.09,0.71,0.26s0.27,0.43,0.33,0.76l0.87,4.85h-0.94l-0.8-4.88c-0.01-0.08-0.03-0.13-0.05-0.16
			c-0.03-0.03-0.06-0.05-0.1-0.05c-0.05,0-0.08,0.02-0.12,0.05c-0.03,0.03-0.06,0.09-0.08,0.17l-0.94,3.95
			c-0.08,0.33-0.19,0.58-0.34,0.76s-0.39,0.26-0.7,0.26c-0.33,0-0.56-0.1-0.71-0.29s-0.25-0.43-0.32-0.7l-0.93-3.98
			c-0.02-0.09-0.04-0.15-0.07-0.18c-0.03-0.03-0.06-0.05-0.11-0.05c-0.04,0-0.08,0.02-0.11,0.05c-0.03,0.03-0.05,0.08-0.06,0.16
			l-0.82,4.88H193.01z"/>
		<path class="st2" d="M204.56,50.46c0.68,0,1.21,0.1,1.58,0.3s0.55,0.58,0.55,1.14v0.27c0,0.25-0.06,0.47-0.18,0.67
			s-0.35,0.35-0.68,0.46c0.37,0.12,0.63,0.29,0.78,0.51c0.15,0.22,0.23,0.46,0.23,0.71v0.28c0,0.56-0.19,0.95-0.57,1.14
			s-0.93,0.3-1.65,0.3h-2.67v-5.77H204.56z M204.86,51.23h-2.02v1.74h2.01c0.34,0,0.58-0.06,0.71-0.18c0.14-0.12,0.21-0.3,0.21-0.54
			v-0.36c0-0.22-0.07-0.38-0.21-0.49C205.41,51.29,205.18,51.23,204.86,51.23z M204.99,53.74h-2.15v1.72H205
			c0.35,0,0.59-0.05,0.72-0.17s0.2-0.28,0.2-0.5v-0.36c0-0.21-0.07-0.37-0.2-0.5S205.34,53.74,204.99,53.74z"/>
		<path class="st2" d="M207.77,56.23v-5.77h4.62v0.77h-3.74v1.68h3.74v0.77h-3.74v1.78h3.74v0.77H207.77z"/>
		<path class="st2" d="M218.41,56.23h-1.09l-2.26-2.47c-0.08-0.08-0.13-0.17-0.16-0.28c-0.03-0.1-0.03-0.2,0-0.28
			c0.03-0.08,0.08-0.15,0.17-0.21c0.08-0.06,0.19-0.09,0.32-0.09h1.33c0.33,0,0.57-0.05,0.7-0.15s0.2-0.29,0.2-0.57v-0.24
			c0-0.28-0.07-0.46-0.2-0.56c-0.13-0.1-0.36-0.15-0.7-0.15h-2.42v5h-0.88v-5.77h3.11c0.28,0,0.54,0.02,0.79,0.07
			c0.24,0.05,0.46,0.13,0.63,0.24c0.18,0.11,0.32,0.27,0.42,0.46c0.1,0.19,0.15,0.43,0.15,0.73v0.21c0,0.58-0.18,0.98-0.53,1.18
			s-0.86,0.31-1.5,0.31h-0.44L218.41,56.23z"/>
	</g>
</g>
<g id="Group_538-2">
	<path id="Path_186" class="st1" d="M12.18,6.74l-5.25,5.09h-6.7l8.33-8.27C11.66,0.5,13.15,0,18.44,0H39.3l-4.53,4.43H19.03
		C15.09,4.43,14.25,4.74,12.18,6.74 M34.1,5.14H19.13c-3.97,0-4.6,0.3-6.4,2.11l-4.59,4.59h6.21l1.48-1.48
		c0.98-0.98,1.41-1.07,3.38-1.07h10.74L34.1,5.14z M35.72,11.84L47.59,0h-7.37L28.37,11.84L35.72,11.84z"/>
	<path id="Path_187" class="st1" d="M40.7,11.84c-0.71,0.02-1.31-0.55-1.33-1.26c-0.02-0.71,0.55-1.31,1.26-1.33
		c0.02,0,0.04,0,0.06,0c0.35-0.01,0.68,0.13,0.93,0.37c0.49,0.52,0.49,1.32,0,1.84C41.38,11.71,41.05,11.85,40.7,11.84 M40.69,9.45
		c-0.29-0.01-0.57,0.11-0.77,0.32c-0.41,0.43-0.41,1.11,0,1.54c0.43,0.42,1.11,0.42,1.54,0c0.41-0.43,0.41-1.11,0-1.54
		C41.26,9.56,40.98,9.45,40.69,9.45 M40.44,10.76v0.51h-0.28V9.83h0.54c0.15-0.01,0.29,0.03,0.42,0.1c0.1,0.07,0.15,0.19,0.14,0.31
		c0.01,0.11-0.01,0.21-0.06,0.31c-0.04,0.07-0.11,0.13-0.19,0.16l0.27,0.54h-0.3l-0.25-0.51L40.44,10.76z M40.44,10.05v0.48h0.29
		c0.07,0.01,0.14-0.01,0.19-0.06c0.04-0.05,0.07-0.12,0.06-0.18c0-0.16-0.1-0.24-0.3-0.24H40.44z"/>
	<path id="Path_188" class="st1" d="M10.81,63.2h4.92v-3.69h-4.92V63.2z M12.04,60.74h2.46v1.23h-2.46V60.74z M32.48,63.19v1.24
		h-1.23V63.2h-3.7c-0.68,0-1.23-0.55-1.23-1.23v-3.69h1.23v3.69h3.7v-3.69h1.23v3.7h1.23v-4.93h-3.69v3.69h-1.24v-3.69H25.1v0.63
		c-0.53-0.41-1.19-0.63-1.86-0.63H11.42c-0.97,0-1.88,0.46-2.46,1.23c-0.58-0.78-1.49-1.23-2.46-1.23H0.23v1.23H6.5
		c1.02,0,1.85,0.83,1.85,1.85s-0.83,1.85-1.85,1.85h-3.8v1.23h5.7c0.09,0.45,0.28,0.87,0.55,1.23h-7.5v-1.85
		c0-1.02,0.83-1.84,1.84-1.84h3.81v-1.23H0.23v1.23h0.62c-0.4,0.53-0.62,1.18-0.62,1.84v3.08h14.88c0.67,0,1.31-0.22,1.85-0.62v0.62
		h16.75v-2.47L32.48,63.19z M16.96,60.74v1.84c0,1.02-0.83,1.84-1.85,1.85h-3.69c-1.02,0-1.84-0.83-1.84-1.85v-2.46
		c0-1.02,0.83-1.84,1.84-1.85h3.69c1.02,0,1.84,0.83,1.85,1.85L16.96,60.74z M18.19,64.43v-1.85c0-1.02,0.83-1.84,1.85-1.84h3.81
		v-1.23h-5.72c-0.09-0.45-0.28-0.87-0.55-1.23h5.66c1.02,0,1.85,0.83,1.85,1.85s-0.83,1.85-1.85,1.85h-3.79v1.23h5.99
		c0.44,0.76,1.25,1.23,2.13,1.23H18.19z"/>
	<path id="Path_189" class="st2" d="M3.22,22.61H0.23v-8.61h7.7v2.64H3.22v0.72h4.71v2.18H3.22L3.22,22.61z"/>
	<path id="Path_190" class="st2" d="M12.79,22.6c-0.6,0-1.19-0.11-1.75-0.32c-0.53-0.2-1.02-0.5-1.43-0.89
		C9.19,21,8.87,20.53,8.64,20.02c-0.48-1.1-0.48-2.36,0-3.46c0.23-0.52,0.56-0.98,0.96-1.37c0.42-0.39,0.9-0.69,1.43-0.9
		c1.13-0.43,2.38-0.43,3.5,0c0.53,0.2,1.02,0.51,1.43,0.9c0.41,0.39,0.74,0.86,0.96,1.37c0.48,1.1,0.48,2.36,0,3.46
		c-0.23,0.52-0.56,0.98-0.96,1.37c-0.41,0.39-0.9,0.69-1.43,0.89C13.98,22.49,13.39,22.6,12.79,22.6 M12.79,19.97
		c0.45,0.02,0.89-0.16,1.2-0.48c0.62-0.69,0.62-1.73,0-2.41c-0.31-0.32-0.75-0.5-1.2-0.48c-0.45-0.02-0.88,0.16-1.2,0.48
		c-0.61,0.69-0.61,1.72,0,2.41C11.9,19.81,12.34,19.98,12.79,19.97"/>
	<path id="Path_191" class="st2" d="M26.54,22.61H23l-2.35-3.26v3.26h-2.99v-8.61h5.89c0.44-0.01,0.89,0.07,1.3,0.24
		c0.35,0.14,0.67,0.35,0.94,0.61c0.25,0.25,0.44,0.55,0.56,0.87c0.12,0.32,0.19,0.66,0.19,1c0,0.31-0.05,0.63-0.16,0.92
		c-0.1,0.3-0.26,0.57-0.46,0.82c-0.21,0.25-0.47,0.46-0.76,0.61c-0.33,0.18-0.69,0.29-1.06,0.33L26.54,22.61z M20.53,16.37v1.07
		h2.39c0.3,0,0.53-0.24,0.53-0.53c0-0.29-0.24-0.53-0.53-0.53H20.53z"/>
	<path id="Path_192" class="st2" d="M40.16,17.2v5.4H37.4v-5.45c0-0.16-0.23-0.29-0.39-0.3c-0.17,0.01-0.3,0.13-0.32,0.3v2.4
		c0,0.42-0.06,0.83-0.2,1.23c-0.12,0.36-0.32,0.69-0.59,0.96c-0.27,0.27-0.59,0.48-0.94,0.62c-0.4,0.16-0.83,0.23-1.27,0.23h-0.09
		h-0.09c-0.19,0.01-0.39-0.02-0.57-0.07c-0.18-0.04-0.35-0.09-0.52-0.16c-0.35-0.14-0.67-0.36-0.93-0.63
		c-0.26-0.28-0.46-0.6-0.58-0.96c-0.14-0.39-0.21-0.81-0.2-1.22v-2.29c0-0.23-0.19-0.41-0.41-0.41c-0.23,0-0.41,0.19-0.41,0.41v5.33
		h-2.99v-5.4c0-0.43,0.08-0.87,0.24-1.27c0.15-0.38,0.38-0.73,0.68-1.02c0.3-0.29,0.65-0.52,1.04-0.68
		c0.42-0.17,0.87-0.25,1.33-0.25c0.43-0.01,0.85,0.07,1.25,0.25c0.38,0.15,0.72,0.39,0.99,0.69c0.27,0.31,0.48,0.68,0.6,1.08
		c0.14,0.45,0.21,0.91,0.21,1.38v2.04c0,0.16,0.13,0.3,0.3,0.3c0.16,0,0.3-0.13,0.3-0.3v-2.04c0-0.46,0.07-0.92,0.21-1.36
		c0.13-0.4,0.34-0.77,0.61-1.08c0.28-0.31,0.63-0.55,1.02-0.7c0.41-0.18,0.86-0.26,1.31-0.25c0.44,0,0.87,0.08,1.27,0.25
		c0.38,0.16,0.72,0.39,1,0.68c0.29,0.29,0.51,0.64,0.66,1.02C40.08,16.34,40.16,16.77,40.16,17.2"/>
	<path id="Path_193" class="st2" d="M49.52,18.27L49.52,18.27c0,0,0,0.01,0,0.01c0.01,0.6-0.12,1.19-0.36,1.74
		c-0.23,0.52-0.56,0.98-0.96,1.37c-0.41,0.39-0.9,0.69-1.43,0.89c-1.13,0.43-2.37,0.43-3.5,0c-0.53-0.2-1.02-0.5-1.43-0.89
		c-0.41-0.39-0.74-0.86-0.96-1.37c-0.24-0.55-0.36-1.14-0.36-1.74v-4.3h2.85v4.3c-0.01,0.45,0.15,0.88,0.46,1.21
		c0.31,0.32,0.75,0.5,1.2,0.48c0.45,0.02,0.89-0.16,1.2-0.48c0.31-0.32,0.48-0.76,0.46-1.21c0,0,0-0.01,0-0.01v-4.28h2.84
		L49.52,18.27z"/>
	<path id="Path_194" class="st2" d="M57.46,22.61h-7.58v-8.61h2.99v5.97h4.59V22.61z"/>
	<path id="Path_195" class="st2" d="M68.41,22.61h-3.16l-0.64-1.71h-3.04l-0.63,1.71h-3.11l2.52-6.33c0.24-0.66,0.63-1.25,1.15-1.71
		c0.96-0.77,2.32-0.77,3.27,0c0.52,0.46,0.91,1.05,1.14,1.71L68.41,22.61z M62.4,18.36h1.37l-0.69-1.62L62.4,18.36z"/>
	<path id="Path_196" class="st2" d="M78.18,22.61h-6.89v-2.8h1.95v-3.06h-1.95v-2.76h2.64c1.22-0.05,2.24,0.89,2.3,2.1
		c0,0.06,0,0.13,0,0.19v3.51h1.95L78.18,22.61z"/>
	<path id="Path_197" class="st2" d="M8.48,31.51h0.77v1.86H4.79l0,0H4.74c-0.6,0-1.19-0.11-1.75-0.32c-0.53-0.2-1.02-0.5-1.43-0.89
		c-0.41-0.39-0.74-0.85-0.96-1.37c-0.48-1.1-0.48-2.36,0-3.46c0.23-0.52,0.56-0.98,0.96-1.37c0.41-0.39,0.9-0.69,1.43-0.9
		c0.56-0.22,1.15-0.33,1.75-0.32c0.6,0,1.19,0.11,1.75,0.32c0.53,0.2,1.02,0.51,1.43,0.9c0.41,0.39,0.74,0.86,0.96,1.37
		c0.48,1.1,0.48,2.36,0,3.46C8.78,31.04,8.64,31.28,8.48,31.51 M4.74,30.73c0.45,0.02,0.89-0.16,1.2-0.48
		c0.62-0.69,0.62-1.73,0-2.41c-0.31-0.32-0.75-0.5-1.2-0.48c-0.45-0.02-0.88,0.16-1.2,0.48c-0.61,0.69-0.61,1.72,0,2.41
		C3.86,30.58,4.29,30.75,4.74,30.73"/>
	<path id="Path_198" class="st2" d="M19.88,33.37h-3.16l-0.64-1.71h-3.04l-0.63,1.71H9.29l2.52-6.33c0.24-0.66,0.63-1.25,1.15-1.71
		c0.96-0.77,2.32-0.77,3.27,0c0.52,0.46,0.91,1.05,1.14,1.71L19.88,33.37z M13.86,29.12h1.37l-0.69-1.62L13.86,29.12z"/>
	<path id="Path_199" class="st2" d="M24.31,33.37h-2.99v-5.97h-3.16v-2.64h9.29v2.64h-3.15L24.31,33.37z"/>
	<path id="Path_200" class="st2" d="M36.38,33.37h-3.16l-0.64-1.71h-3.04l-0.63,1.71h-3.11l2.52-6.33c0.24-0.66,0.63-1.25,1.15-1.71
		c0.96-0.77,2.32-0.77,3.27,0c0.52,0.46,0.91,1.05,1.14,1.71L36.38,33.37z M30.37,29.12h1.37l-0.69-1.62L30.37,29.12z"/>
	<path id="Path_201" class="st2" d="M45.53,33.37h-3.54l-2.35-3.26v3.26h-2.99v-8.61h5.89c0.44-0.01,0.89,0.07,1.3,0.24
		c0.35,0.14,0.67,0.35,0.94,0.61c0.25,0.25,0.44,0.55,0.56,0.87c0.12,0.32,0.19,0.66,0.19,1c0,0.31-0.05,0.63-0.16,0.92
		c-0.1,0.3-0.26,0.57-0.46,0.82c-0.21,0.25-0.47,0.46-0.76,0.61c-0.33,0.18-0.69,0.29-1.06,0.33L45.53,33.37z M39.52,27.13v1.07
		h2.39c0.3,0,0.53-0.24,0.53-0.53c0-0.29-0.24-0.53-0.53-0.53H39.52z"/>
	<path id="Path_202" class="st2" d="M58.69,33.37h-3.16l-0.64-1.71h-3.04l-0.63,1.71H48.1l2.52-6.33c0.24-0.66,0.63-1.25,1.15-1.71
		c0.96-0.77,2.32-0.77,3.27,0c0.52,0.46,0.91,1.05,1.14,1.71L58.69,33.37z M52.67,29.12h1.37l-0.69-1.62L52.67,29.12z"/>
	<rect id="Rectangle_70" x="59.04" y="24.75" class="st2" width="2.99" height="8.61"/>
	<path id="Path_203" class="st2" d="M71.27,33.37h-3.54l-2.35-3.26v3.26h-2.99v-8.61h5.89c0.44-0.01,0.89,0.07,1.3,0.24
		c0.35,0.14,0.67,0.35,0.94,0.61c0.25,0.25,0.44,0.55,0.56,0.87c0.12,0.32,0.19,0.66,0.19,1c0,0.31-0.05,0.63-0.16,0.92
		c-0.1,0.3-0.26,0.57-0.46,0.82c-0.21,0.25-0.47,0.46-0.76,0.61c-0.33,0.18-0.69,0.29-1.06,0.33L71.27,33.37z M65.26,27.13v1.07
		h2.39c0.3,0,0.53-0.24,0.53-0.53c0-0.29-0.24-0.53-0.53-0.53H65.26z"/>
	<path id="Path_204" class="st2" d="M81.82,33.36c-0.44,0.02-0.88-0.13-1.21-0.42c-0.33-0.33-0.58-0.74-0.73-1.19l-1.1-3.08
		l-1.18,3.08c-0.16,0.45-0.4,0.86-0.72,1.21c-0.32,0.29-0.74,0.44-1.17,0.41c-0.41,0.01-0.8-0.12-1.11-0.38
		c-0.32-0.28-0.56-0.64-0.7-1.04l-2.84-7.22h3.4l1.39,4.05l0.99-2.51c0.14-0.44,0.39-0.83,0.73-1.13c0.71-0.54,1.69-0.54,2.4,0
		c0.34,0.31,0.59,0.7,0.73,1.13l0.98,2.49l1.3-4.03h3.4l-2.77,7.22c-0.14,0.4-0.37,0.76-0.68,1.05
		C82.61,33.24,82.22,33.38,81.82,33.36"/>
	<path id="Path_205" class="st2" d="M94.42,33.37h-3.16l-0.64-1.71h-3.04l-0.63,1.71h-3.11l2.52-6.33c0.24-0.66,0.63-1.25,1.15-1.71
		c0.96-0.77,2.32-0.77,3.27,0c0.52,0.46,0.91,1.05,1.14,1.71L94.42,33.37z M88.4,29.12h1.37l-0.69-1.62L88.4,29.12z"/>
	<path id="Path_206" class="st2" d="M98.37,33.37h-3.1v-2.72l-3.76-5.89h3.56l1.75,2.89l1.75-2.89h3.56l-3.78,5.93L98.37,33.37z"/>
	<path id="Path_207" class="st2" d="M109.76,30.67c0.03,0.74-0.28,1.46-0.83,1.95c-0.6,0.49-1.35,0.76-2.12,0.74h-5.11v-2.64h4.89
		c0.2,0,0.37-0.16,0.37-0.37s-0.16-0.37-0.37-0.37l0,0h-2.34c-0.35,0-0.69-0.06-1.02-0.19c-0.32-0.12-0.61-0.3-0.85-0.54
		c-0.52-0.51-0.81-1.22-0.8-1.95c0-0.34,0.07-0.68,0.21-1c0.14-0.31,0.33-0.58,0.58-0.81c0.25-0.24,0.55-0.42,0.87-0.54
		c0.34-0.13,0.71-0.2,1.08-0.2h5.41v2.64h-4.7c-0.2,0-0.37,0.16-0.37,0.37c0,0.2,0.16,0.37,0.37,0.37l0,0h1.78
		c0.4,0,0.8,0.05,1.19,0.16c0.34,0.09,0.66,0.25,0.94,0.47c0.26,0.22,0.47,0.49,0.6,0.8C109.7,29.91,109.77,30.29,109.76,30.67"/>
	<path id="Path_208" class="st2" d="M10.59,44.13H7.43l-0.64-1.71H3.74l-0.63,1.71H0l2.52-6.33c0.24-0.66,0.63-1.25,1.15-1.71
		c0.46-0.38,1.04-0.59,1.64-0.57c0.6-0.01,1.18,0.19,1.64,0.57c0.52,0.46,0.91,1.05,1.14,1.71L10.59,44.13z M4.57,39.88h1.37
		l-0.69-1.62L4.57,39.88z"/>
	<path id="Path_209" class="st2" d="M18.62,44.13h-6.08c-0.58,0.03-1.15-0.16-1.6-0.53c-0.38-0.33-0.6-0.81-0.59-1.31
		c0.01-0.35,0.1-0.69,0.27-1c0.23-0.4,0.54-0.74,0.92-1l2.93-2.14h-4.04v-2.64h6.33c0.54-0.03,1.06,0.14,1.49,0.47
		c0.36,0.29,0.57,0.73,0.56,1.19c-0.01,0.33-0.1,0.65-0.26,0.93c-0.24,0.4-0.57,0.74-0.96,0.99l-3.42,2.4h4.46L18.62,44.13z"/>
	<path id="Path_210" class="st2" d="M27.15,44.13h-7.98v-8.61h7.98v2.64h-4.94v0.74h4.83l0,1.86h-4.82v0.74h4.94V44.13z"/>
	<path id="Path_211" class="st2" d="M36.39,44.13h-3.54l-2.35-3.26v3.26h-2.99v-8.61h5.89c0.44-0.01,0.89,0.07,1.3,0.24
		c0.35,0.14,0.67,0.35,0.94,0.61c0.25,0.25,0.44,0.55,0.56,0.87c0.12,0.32,0.19,0.66,0.19,1c0,0.31-0.05,0.63-0.16,0.92
		c-0.1,0.3-0.26,0.57-0.46,0.82c-0.21,0.25-0.47,0.46-0.76,0.61c-0.33,0.18-0.69,0.29-1.06,0.33L36.39,44.13z M30.38,37.89v1.07
		h2.39c0.3,0,0.53-0.24,0.53-0.53c0-0.3-0.24-0.53-0.53-0.53H30.38z"/>
	<path id="Path_212" class="st2" d="M42.38,44.13h-5.62v-8.61h5.85c0.36,0,0.72,0.04,1.06,0.14c0.3,0.08,0.59,0.22,0.84,0.41
		c0.24,0.19,0.42,0.42,0.55,0.7c0.14,0.31,0.21,0.64,0.2,0.98c0,0.43-0.12,0.86-0.35,1.23c-0.27,0.4-0.67,0.7-1.13,0.84
		c0.44,0.13,0.83,0.4,1.11,0.77c0.26,0.37,0.39,0.81,0.37,1.25c0.01,0.35-0.07,0.7-0.22,1.02c-0.14,0.28-0.35,0.53-0.6,0.72
		c-0.27,0.2-0.58,0.35-0.91,0.42C43.15,44.09,42.76,44.13,42.38,44.13 M39.72,38.89h2.02c0.3,0,0.54-0.24,0.54-0.54
		c0-0.3-0.24-0.54-0.54-0.54h-2.02L39.72,38.89z M39.72,41.83h2.02c0.3-0.01,0.53-0.25,0.53-0.55c-0.01-0.29-0.24-0.52-0.53-0.53
		h-2.02L39.72,41.83z"/>
	<path id="Path_213" class="st2" d="M55.5,44.13h-3.16l-0.64-1.71h-3.04l-0.63,1.71h-3.11l2.52-6.33c0.24-0.66,0.63-1.25,1.15-1.71
		c0.96-0.77,2.32-0.77,3.27,0c0.52,0.46,0.91,1.05,1.14,1.71L55.5,44.13z M49.49,39.88h1.37l-0.69-1.62L49.49,39.88z"/>
	<rect id="Rectangle_71" x="55.86" y="35.52" class="st2" width="2.99" height="8.61"/>
	<path id="Path_214" class="st2" d="M61.54,44.13h-2.33v-2.64h1.7c0.52,0.03,1.03-0.13,1.44-0.44c0.38-0.34,0.57-0.83,0.53-1.34
		v-4.19h2.99v4.31c0,0.57-0.11,1.14-0.32,1.67c-0.21,0.51-0.51,0.98-0.89,1.37c-0.39,0.4-0.85,0.71-1.37,0.92
		C62.73,44.02,62.14,44.14,61.54,44.13"/>
	<path id="Path_215" class="st2" d="M75.5,44.13h-3.16l-0.64-1.71h-3.04l-0.63,1.71h-3.11l2.52-6.33c0.24-0.66,0.63-1.25,1.15-1.71
		c0.96-0.77,2.32-0.77,3.27,0c0.52,0.46,0.91,1.05,1.14,1.71L75.5,44.13z M69.48,39.88h1.37l-0.69-1.62L69.48,39.88z"/>
	<path id="Path_216" class="st2" d="M85.77,35.51v6.51c0.01,0.32-0.05,0.63-0.17,0.92c-0.1,0.25-0.25,0.47-0.44,0.65
		c-0.18,0.17-0.4,0.31-0.64,0.39c-0.24,0.09-0.5,0.13-0.76,0.13c-0.38,0.01-0.75-0.08-1.07-0.27c-0.36-0.23-0.69-0.52-0.96-0.86
		l-1.44-1.66l-1.47-1.66v4.44h-2.99v-6.51c-0.01-0.32,0.05-0.63,0.17-0.92c0.1-0.25,0.25-0.47,0.44-0.65
		c0.18-0.17,0.4-0.31,0.64-0.39c0.24-0.09,0.5-0.13,0.76-0.13c0.38-0.01,0.75,0.08,1.07,0.27c0.36,0.23,0.69,0.52,0.96,0.86
		l0.29,0.34v0c0.11,0.1,0.22,0.21,0.3,0.31l2.31,2.6v-4.37H85.77z"/>
	<path id="Path_217" class="st2" d="M9.08,54.89H4.91c-0.65,0.01-1.29-0.11-1.9-0.34c-0.55-0.21-1.05-0.52-1.48-0.92
		c-0.41-0.39-0.73-0.86-0.96-1.37c-0.7-1.62-0.32-3.5,0.96-4.71c0.43-0.4,0.93-0.71,1.48-0.92c0.6-0.24,1.25-0.35,1.9-0.34h4.17
		v2.64H5.37c-0.51-0.02-1.01,0.13-1.42,0.44c-0.68,0.59-0.75,1.61-0.17,2.29c0.05,0.06,0.11,0.12,0.17,0.17
		c0.41,0.3,0.91,0.46,1.42,0.44h0.72v-2.48h2.99L9.08,54.89z"/>
	<path id="Path_218" class="st2" d="M18.32,54.89h-3.54l-2.35-3.26v3.26H9.44v-3.07c-0.01-0.48,0.17-0.94,0.5-1.29
		c0.36-0.37,0.85-0.56,1.36-0.53h3.51c0.23,0,0.42-0.31,0.42-0.54c0-0.23-0.19-0.54-0.42-0.54H8.29v-2.64h7.04
		c0.44-0.01,0.89,0.07,1.3,0.24c0.35,0.14,0.67,0.35,0.94,0.61c0.25,0.25,0.44,0.55,0.56,0.87c0.12,0.32,0.19,0.66,0.19,1
		c0,0.31-0.05,0.63-0.16,0.92c-0.1,0.3-0.26,0.57-0.46,0.82c-0.21,0.25-0.47,0.46-0.76,0.61c-0.33,0.18-0.69,0.29-1.06,0.33
		L18.32,54.89z"/>
	<path id="Path_219" class="st2" d="M29.27,54.89h-3.16l-0.64-1.71h-3.04l-0.63,1.71h-3.11l2.52-6.33c0.24-0.66,0.63-1.25,1.15-1.71
		c0.96-0.77,2.32-0.77,3.27,0c0.52,0.46,0.91,1.05,1.14,1.71L29.27,54.89z M23.25,50.64h1.37l-0.69-1.62L23.25,50.64z"/>
	<path id="Path_220" class="st2" d="M39.54,46.28v6.51c0.01,0.32-0.05,0.63-0.17,0.92c-0.1,0.25-0.25,0.47-0.44,0.65
		c-0.18,0.17-0.4,0.31-0.64,0.39c-0.24,0.09-0.5,0.13-0.76,0.13c-0.38,0.01-0.75-0.08-1.07-0.27c-0.36-0.23-0.69-0.52-0.96-0.86
		l-1.44-1.66l-1.47-1.66v4.44h-2.99v-6.51c-0.01-0.32,0.05-0.63,0.17-0.92c0.1-0.25,0.25-0.47,0.44-0.65
		c0.18-0.17,0.4-0.31,0.64-0.39c0.24-0.09,0.5-0.13,0.76-0.13c0.38-0.01,0.75,0.08,1.07,0.27c0.36,0.23,0.69,0.52,0.96,0.86
		l0.29,0.34v0c0.11,0.1,0.22,0.21,0.3,0.31l2.31,2.6v-4.37H39.54z"/>
	<path id="Path_221" class="st2" d="M44.01,54.89h-4.1v-8.61h3.99c0.7-0.01,1.39,0.1,2.05,0.32c0.58,0.19,1.12,0.49,1.59,0.89
		c0.43,0.37,0.78,0.83,1.02,1.35c0.25,0.53,0.37,1.11,0.37,1.69c0,0.58-0.11,1.16-0.33,1.71c-0.21,0.53-0.54,1-0.95,1.39
		c-0.45,0.41-0.97,0.73-1.54,0.93C45.43,54.79,44.72,54.9,44.01,54.89 M42.89,52.25h0.86c0.28,0,0.56-0.03,0.83-0.09
		c0.24-0.05,0.47-0.15,0.68-0.29c0.19-0.14,0.35-0.31,0.46-0.52c0.12-0.25,0.18-0.52,0.17-0.79c0.01-0.25-0.05-0.5-0.17-0.72
		c-0.11-0.2-0.27-0.38-0.46-0.52c-0.2-0.14-0.43-0.25-0.68-0.3c-0.27-0.07-0.55-0.1-0.83-0.1h-0.86V52.25z"/>
	<path id="Path_222" class="st2" d="M54.68,54.89h-2.87v-8.61h5.74c0.44-0.01,0.87,0.07,1.28,0.24c0.34,0.14,0.65,0.36,0.9,0.63
		c0.24,0.26,0.42,0.56,0.53,0.89c0.11,0.33,0.17,0.67,0.17,1.02c0,0.35-0.06,0.7-0.17,1.03c-0.23,0.71-0.75,1.28-1.42,1.58
		c-0.4,0.18-0.84,0.26-1.28,0.25h-2.87V54.89z M54.68,49.62h2.29c0.29,0,0.52-0.23,0.52-0.52c0-0.29-0.23-0.52-0.52-0.52
		c0,0,0,0,0,0h-2.29V49.62z"/>
	<path id="Path_223" class="st2" d="M69.66,54.89h-3.54l-2.35-3.26v3.26h-2.99v-8.61h5.89c0.44-0.01,0.89,0.07,1.3,0.24
		c0.35,0.14,0.67,0.35,0.94,0.61c0.25,0.25,0.44,0.55,0.56,0.87c0.12,0.32,0.19,0.66,0.19,1c0,0.31-0.05,0.63-0.16,0.92
		c-0.1,0.3-0.26,0.57-0.46,0.82c-0.21,0.25-0.47,0.46-0.76,0.61c-0.33,0.18-0.69,0.29-1.06,0.33L69.66,54.89z M63.65,48.66v1.07
		h2.39c0.3,0,0.53-0.24,0.53-0.53c0-0.3-0.24-0.53-0.53-0.53H63.65z"/>
	<rect id="Rectangle_72" x="70.03" y="46.28" class="st2" width="2.99" height="8.61"/>
	<path id="Path_224" class="st2" d="M77.12,54.89h-3.74l3.47-4.35l-3.47-4.26h3.8l1.7,2.08l1.65-2.08h3.71l-3.47,4.36l3.5,4.25
		h-3.82l-1.7-2.09L77.12,54.89z"/>
	<path id="Path_225" class="st1" d="M120.88,19.56v33.03c0,6.13-4.97,11.09-11.1,11.09c-0.01,0-0.01,0-0.02,0h-74.3l-0.22,0.22h75.6
		c6.13,0.01,11.11-4.94,11.12-11.07c0-0.01,0-0.01,0-0.02V19.33c0-6.14-4.98-11.12-11.12-11.12l0,0H90.37l-0.22,0.22h19.62
		C115.9,8.44,120.88,13.42,120.88,19.56L120.88,19.56"/>
	<path id="Path_226" class="st1" d="M119.09,19.41v33.32c0,5.14-4.17,9.3-9.31,9.3c-0.01,0-0.01,0-0.02,0H37.11l-0.22,0.22h73.95
		c5.14,0.01,9.31-4.14,9.33-9.28c0-0.01,0-0.01,0-0.02V19.19c0-5.15-4.18-9.33-9.33-9.33H88.72l-0.22,0.22h21.27
		C114.92,10.08,119.09,14.26,119.09,19.41L119.09,19.41"/>
	<path id="Path_227" class="st1" d="M117.3,19.37v33.4c0,4.15-3.37,7.51-7.51,7.5c-0.01,0-0.01,0-0.02,0H38.87l-0.22,0.22h72.2
		c4.15,0.01,7.52-3.34,7.53-7.48c0-0.01,0-0.01,0-0.02V19.15c0-4.16-3.37-7.53-7.53-7.53l0,0H86.97l-0.22,0.22h23.02
		C113.93,11.84,117.3,15.21,117.3,19.37C117.3,19.37,117.3,19.37,117.3,19.37"/>
	<path id="Path_228" class="st1" d="M110.84,6.46H92.12L91.9,6.68h17.87c7.13,0,12.91,5.78,12.91,12.91v32.95
		c0,7.12-5.78,12.89-12.89,12.89c-0.01,0-0.01,0-0.02,0H32.75v0.22h78.09c7.12,0.01,12.9-5.75,12.91-12.87c0-0.01,0-0.01,0-0.02
		v-33.4C123.75,12.24,117.97,6.46,110.84,6.46"/>
	<path id="Path_229" class="st3" d="M61.21,10.17c-0.18,0.01-0.35,0.02-0.52,0.02c-0.2,0-0.39-0.02-0.59-0.02l0.58-1.4L61.21,10.17z
		 M61.85,11.76c0.1-0.01,0.26-0.03,0.42-0.03c0.16,0,0.36,0.03,0.45,0.03c-0.26-0.55-0.63-1.41-0.85-1.91
		c-0.21-0.48-0.55-1.28-0.82-2.06c-0.06,0.02-0.12,0.03-0.18,0.03c-0.06,0-0.13-0.01-0.19-0.03c-0.3,0.85-0.65,1.68-1.04,2.49
		l-0.66,1.47c0.08-0.02,0.17-0.03,0.26-0.03c0.09,0,0.18,0.02,0.27,0.03c0.13-0.42,0.28-0.83,0.45-1.24
		c0.23-0.01,0.46-0.02,0.68-0.02c0.24,0,0.48,0.01,0.73,0.02l0.24,0.6L61.85,11.76z"/>
	<path id="Path_230" class="st2" d="M63.22,9.17c0,0.97,0,1.91-0.06,2.59c0.13-0.01,0.29-0.03,0.41-0.03c0.13,0,0.27,0.03,0.4,0.03
		c-0.05-0.46-0.06-1.08-0.06-1.92c-0.01-0.66,0.01-1.32,0.06-1.98c-0.13,0.02-0.27,0.03-0.4,0.03c-0.09,0-0.3-0.02-0.4-0.03
		C63.2,8.29,63.22,8.73,63.22,9.17"/>
	<path id="Path_231" class="st3" d="M66.6,9.82c0.52-0.1,0.99-0.42,0.99-1.05c0-0.24-0.09-0.47-0.26-0.64
		c-0.25-0.21-0.57-0.31-0.89-0.28c-0.13,0-0.79,0.03-0.94,0.03c-0.19,0-0.38-0.01-0.57-0.03c0.04,0.73,0.04,0.81,0.04,1.56
		c0,1.1-0.01,1.22-0.05,2.35c0.13-0.02,0.26-0.03,0.39-0.03c0.13,0,0.26,0.01,0.38,0.03c0-0.15-0.02-0.88-0.02-1.05V9.9h0.14
		c0.31,0.43,0.66,0.93,0.95,1.38c0.09,0.13,0.21,0.34,0.3,0.47c0.15-0.02,0.31-0.03,0.46-0.03c0.17,0,0.34,0.01,0.51,0.03
		c-0.36-0.45-0.51-0.65-0.96-1.28c-0.09-0.12-0.21-0.31-0.3-0.43L66.6,9.82z M65.67,8.16c0.09-0.01,0.3-0.03,0.4-0.03
		c0.19-0.01,0.37,0.04,0.53,0.14c0.18,0.14,0.27,0.37,0.24,0.59c0.03,0.41-0.28,0.76-0.68,0.79c-0.03,0-0.06,0-0.1,0
		c-0.15,0-0.28-0.01-0.39-0.02L65.67,8.16z"/>
	<path id="Path_232" class="st2" d="M69.57,10.43c-0.27-0.79-0.64-1.9-0.81-2.57c-0.13,0.02-0.27,0.03-0.4,0.03
		c-0.14,0-0.33-0.02-0.44-0.03c0.23,0.62,0.43,1.16,0.59,1.59c0.26,0.74,0.43,1.25,0.64,1.88l0.14,0.43
		c0.08-0.02,0.16-0.03,0.23-0.03c0.07,0,0.15,0.01,0.22,0.03c0.09-0.3,0.2-0.66,0.28-0.89c0.22-0.65,0.25-0.74,0.54-1.55l0.17-0.47
		c0.06,0.18,0.17,0.47,0.23,0.65s0.35,1.05,0.42,1.24c0.09,0.26,0.11,0.33,0.33,1.02c0.08-0.02,0.16-0.03,0.24-0.03
		c0.08,0,0.15,0.01,0.23,0.03c0.22-0.68,0.24-0.74,0.56-1.66c0.31-0.89,0.51-1.39,0.85-2.25c-0.08,0.02-0.17,0.03-0.26,0.03
		c-0.09,0-0.18-0.01-0.26-0.03c-0.21,0.74-0.31,1.1-0.47,1.59c-0.27,0.8-0.3,0.89-0.47,1.32c-0.18-0.49-0.36-0.99-0.52-1.49
		C71.51,9,71.16,7.86,71.15,7.85c-0.08,0.02-0.17,0.03-0.25,0.03c-0.08,0-0.17-0.02-0.25-0.03c-0.17,0.69-0.78,2.37-0.83,2.52
		l-0.14,0.37L69.57,10.43z"/>
	<path id="Path_233" class="st3" d="M75.32,10.17c-0.18,0.01-0.35,0.02-0.52,0.02c-0.2,0-0.39-0.02-0.59-0.02l0.58-1.4L75.32,10.17z
		 M75.96,11.76c0.1-0.01,0.26-0.03,0.42-0.03s0.36,0.03,0.44,0.03c-0.26-0.55-0.63-1.41-0.85-1.91c-0.21-0.48-0.55-1.28-0.82-2.06
		c-0.06,0.02-0.12,0.03-0.18,0.03c-0.06,0-0.13-0.01-0.19-0.03c-0.3,0.85-0.65,1.68-1.04,2.49l-0.66,1.47
		c0.08-0.02,0.17-0.03,0.26-0.03c0.09,0,0.18,0.02,0.27,0.03c0.13-0.42,0.28-0.83,0.46-1.24c0.23-0.01,0.46-0.02,0.68-0.02
		c0.25,0,0.48,0.01,0.73,0.02l0.24,0.6L75.96,11.76z"/>
	<path id="Path_234" class="st2" d="M78.35,10.23c0.01-0.07,0.04-0.13,0.07-0.18c0.24-0.41,0.46-0.84,0.72-1.25
		c0.09-0.14,0.5-0.8,0.59-0.95c-0.08,0.03-0.16,0.04-0.24,0.03c-0.11,0-0.22-0.01-0.33-0.03c-0.28,0.66-0.61,1.3-0.98,1.92
		c-0.48-0.85-0.7-1.3-1-1.92c-0.15,0.02-0.31,0.04-0.47,0.03c-0.16,0-0.31-0.01-0.47-0.03c0.3,0.5,0.78,1.28,1.07,1.78l0.34,0.58
		c0,0.35-0.02,1.1-0.03,1.54c0.11-0.01,0.27-0.03,0.38-0.03c0.13,0,0.26,0.02,0.39,0.03c-0.02-0.53-0.04-0.84-0.04-1.31L78.35,10.23
		z"/>
	<path id="Path_235" class="st2" d="M80.06,10.91c-0.01,0.22-0.06,0.44-0.13,0.64c0.33,0.18,0.69,0.28,1.06,0.29
		c1.04,0,1.45-0.67,1.45-1.25c0-0.28-0.1-0.54-0.28-0.75c-0.22-0.2-0.49-0.34-0.77-0.42c-0.5-0.19-0.79-0.31-0.79-0.72
		c-0.01-0.33,0.25-0.61,0.58-0.62c0.03,0,0.06,0,0.09,0c0.33-0.03,0.64,0.18,0.75,0.5h0.08c0.04-0.19,0.1-0.37,0.18-0.54
		c-0.29-0.15-0.62-0.23-0.94-0.23c-1.03,0-1.33,0.64-1.33,1.14c0,0.47,0.17,0.76,0.72,1.01c0.16,0.07,0.43,0.17,0.59,0.24
		c0.37,0.13,0.56,0.54,0.42,0.9c-0.11,0.29-0.39,0.48-0.7,0.46c-0.34,0-0.62-0.09-0.88-0.65L80.06,10.91z"/>
	<path id="Path_236" class="st3" d="M53.18,3.5c0-2.37,1.27-3,2.23-3c1.54,0,2.21,1.28,2.21,2.64c0.05,0.73-0.12,1.46-0.48,2.1
		c-0.37,0.59-1.02,0.94-1.72,0.95C53.67,6.19,53.18,4.53,53.18,3.5 M57.85,8.34c0.33-0.22,0.68-0.42,1.04-0.58l-2.12-1.31
		c1.3-0.46,2.12-1.62,2.12-3.21c0-2.25-1.72-3.21-3.47-3.21c-1.9,0-3.53,1.05-3.53,3.44c-0.01,0.84,0.31,1.66,0.9,2.26
		c0.69,0.67,1.64,1.01,2.6,0.95c0.1,0,0.21,0,0.31-0.01L57.85,8.34z"/>
	<path id="Path_237" class="st3" d="M63.27,3.91c-0.29,0.02-0.57,0.04-0.86,0.04c-0.33,0-0.65-0.03-0.98-0.04l0.96-2.31L63.27,3.91z
		 M64.33,6.53c0.17-0.01,0.43-0.06,0.69-0.06c0.26,0,0.59,0.05,0.73,0.06c-0.42-0.91-1.04-2.33-1.4-3.14
		c-0.34-0.79-0.9-2.1-1.35-3.39c-0.1,0.03-0.2,0.05-0.3,0.05c-0.1,0-0.21-0.02-0.31-0.05c-0.23,0.77-0.77,1.99-1.72,4.11l-1.09,2.42
		c0.14-0.03,0.28-0.05,0.42-0.06c0.15,0.01,0.3,0.03,0.45,0.06c0.21-0.69,0.46-1.37,0.75-2.04c0.38-0.02,0.75-0.04,1.13-0.04
		c0.4,0,0.8,0.02,1.2,0.04l0.39,1L64.33,6.53z"/>
	<path id="Path_238" class="st2" d="M68.5,1.77c0-0.36,0.01-0.71,0.02-1.05c0.65,0,1.31,0.01,1.87,0.07
		c-0.03-0.11-0.04-0.22-0.05-0.34c0.01-0.12,0.02-0.24,0.05-0.36c-0.9,0.05-1.73,0.06-2.51,0.06c-0.72,0-1.76-0.01-2.51-0.06
		c0.03,0.11,0.05,0.23,0.05,0.35c0,0.12-0.02,0.23-0.05,0.35c0.48-0.05,1.38-0.07,1.46-0.07h0.47c0.01,0.37,0.02,0.7,0.02,1.04
		l0.01,2.62c0,0.71-0.06,1.44-0.09,2.15c0.21-0.03,0.42-0.05,0.64-0.06c0.11,0,0.41,0.03,0.69,0.06c-0.05-0.43-0.07-0.86-0.06-1.29
		L68.5,1.77z"/>
	<path id="Path_239" class="st3" d="M73.72,3.91c-0.29,0.02-0.57,0.04-0.86,0.04c-0.33,0-0.65-0.03-0.98-0.04l0.96-2.31L73.72,3.91z
		 M74.79,6.53c0.17-0.01,0.43-0.06,0.69-0.06s0.59,0.05,0.73,0.06c-0.42-0.91-1.04-2.33-1.4-3.14c-0.34-0.79-0.9-2.1-1.35-3.39
		c-0.1,0.03-0.2,0.05-0.3,0.05c-0.11,0-0.21-0.02-0.31-0.05c-0.22,0.77-0.77,1.99-1.72,4.11l-1.09,2.42
		c0.14-0.03,0.28-0.05,0.42-0.06c0.15,0.01,0.3,0.03,0.45,0.06c0.21-0.69,0.46-1.37,0.75-2.04c0.38-0.02,0.75-0.04,1.13-0.04
		c0.4,0,0.8,0.02,1.2,0.04l0.39,1L74.79,6.53z"/>
	<path id="Path_240" class="st3" d="M79.99,3.34c0.85-0.16,1.63-0.69,1.63-1.74c0-0.39-0.15-0.77-0.43-1.05
		c-0.4-0.38-0.86-0.46-1.47-0.46c-0.22,0-1.3,0.05-1.55,0.05c-0.31,0-0.63-0.01-0.94-0.05c0.06,1.21,0.06,1.34,0.06,2.57
		c0,1.81-0.01,2.02-0.08,3.87c0.21-0.03,0.43-0.05,0.65-0.06c0.21,0.01,0.42,0.03,0.63,0.06c0-0.24-0.04-1.46-0.04-1.73V3.47h0.22
		c0.51,0.71,1.09,1.54,1.57,2.28c0.14,0.22,0.35,0.56,0.49,0.78c0.25-0.04,0.51-0.06,0.76-0.06c0.28,0,0.56,0.02,0.84,0.06
		c-0.59-0.74-0.84-1.07-1.59-2.11c-0.14-0.2-0.35-0.51-0.49-0.7L79.99,3.34z M78.45,0.6c0.14-0.01,0.49-0.05,0.67-0.05
		c0.31-0.02,0.62,0.06,0.87,0.23c0.29,0.24,0.44,0.6,0.39,0.98c0.05,0.67-0.46,1.25-1.13,1.29c-0.05,0-0.11,0-0.16,0
		c-0.24,0-0.47-0.02-0.65-0.03V0.6z"/>
</g>
</svg>
